<svg id="Capa_1" data-name="Capa 1" xmlns="http://www.w3.org/2000/svg" viewBox="0 0 1700.79 1700.79"><defs><style>.cls-1{opacity:0.9;}.cls-2{fill:#f8c5d4;}.cls-3{fill:#fbdce5;}.cls-4{fill:#ef80a2;}.cls-5{fill:#ec6592;}.cls-6{fill:#f4aec2;}.cls-7{fill:#f298b3;}.cls-8{fill:#e94781;}.cls-9{fill:#575756;}.cls-10,.cls-13{fill:#ea5297;}.cls-11,.cls-14{fill:#63328a;}.cls-12{fill:#fff;}.cls-13{stroke:#e6007e;stroke-miterlimit:10;}.cls-14{font-size:160.39px;font-family:EasyGoing, Easy Going - Demo;}</style></defs><g class="cls-1"><g class="cls-1"><path class="cls-2" d="M1496.32,1250.81c-.41-3-3.63-4.47-2.4-7.94l10.64.44C1504.65,1247.64,1502.22,1253.49,1496.32,1250.81Z"/><path class="cls-2" d="M1443.33,1330.27c-4.92.07-9.58.42-14.51.75-3-.66-6.22-1.33-9.21-1.72l-2.45-.11c-4.34-.71-8.69-1.16-13-1.88-3-.12-6.26-.26-9.27-.37l-1.3-1.41c-3,.42-6,.83-9,1a23.64,23.64,0,0,1-2.62-2.54,61.14,61.14,0,0,0-5.34,3.56c-3-.11-6.27-.25-9.26-.38,0,.28,0,.82-.06,1.36-7.37,0-14.76.2-22.14.44-12.24-1-24.48-2.08-36.73-2.85.05-1.35.1-2.7.16-4l-7.9-.32c0,1.35-.11,2.7-.17,4-6.82,0-13.93.24-20.77.49-2.72-.1-5.45-.21-7.9-.32-7.15-5.16-5.46,0-7.9-.32-2.94-1.47-5.89-2.94-9.1-4.43l-3.82-.15c-2.69-.92-5.1-1.83-7.8-2.76-16.38-.12-26.38-2.42-40.55-3-8.77.72-26.61,3-32.27-5.37-5.88,3.54-11.82,1.95-17.28,2,.44-4-4-2.33-6.38-4.05-1.64,0-3.55-.13-5.18-.2-2.73-.12-5.18-.22-7.9-.32-2.46-.11-5.18-.22-7.91-.32l-26.16-1.08c-3-.67-6-1.33-8.94-1.72-3,.15-6.3.56-9.33,1-3,.16-6,.57-9,.71-3.32.95-6.35,1.64-9.38,2.33l-1.37-.06c-3.82.11-7.93.48-11.77.86-4.38.09-8.76.46-13.14.82-2.7-.65-5.14-1.29-7.85-1.67-3.48,4.72-9.14,3.14-13.18,1.89-7.38.24-14.76.48-22.13.45-2.79,1.5-5.6,3.28-8.12,4.81a34.78,34.78,0,0,1-1.15-5.19c-7.11.25-13.93.24-21,.49l-.32,7.83c-5.27,1.94-6.81,6.21-8.23,7.5-3,.15-6,.57-9,.71-9.73-2.29-15.09-4.68-18.26-.75-6.31.83-12.34,1.39-18.65,1.94-8.87-3.34-14.34-3-14.22.77l-5.45-.22c-4.36-.18-8.73-.35-13.09-.54-7.77-3.29-9.32,1-10.45,2l-10.37-.44c-4.35-.17-9-.35-13.07-.53-7.31-1.38-6.09,1.91-10.75,2.27-2.41-.92-5.11-1.83-7.79-3l-2.45-.11c-2.67,5-7.77,3.2-10.74,2.27l-2.46-.1c-1.83,4.79-5.86,3.27-8,2.37-.88,1.58-1.77,3.18-2.94,5-3.5-1.23-6.74-2.17-10.24-3.13-2.73-.1-5.18-.21-7.91-.32-.88,1.59-1.78,3.45-2.67,5-2.68-.92-5.37-1.85-7.8-2.75-4.88-.74-9.49-1.48-14.39-1.94-.42-3-.55-6.24-1-9.24,2.23-1,4.46-2.24,6.7-3.5l1.36.06c.71,2.72,1.43,5.19,2.4,7.93l7.64.31c3.66-2.82,8-1.3,10.79-3.61a66,66,0,0,0,7.79,3c3-.4,6-.55,9.06-1,1.67-.74,3.6-1.48,5.28-2.22,2.72-6.37,6.47-4.6,9.49-5,0-1.07.1-2.42.15-3.78l2.72.12c3.82.42,7.61,1.12,11.67,1.83,5.41,1.3,7.51-3.48,9.27-6.11,2.74-.43,5.5-.86,8-1a38,38,0,0,1,5.12,1.56l2.84-2.59c7.86,1.15,15.74,2.27,23.32,3.67,2-1.81,3.69-3.36,5.67-4.91,3.24.94,6.74,1.89,10.25,2.85,3.55-.12,6.85-.52,10.42-.92l4.08.16c0-.81.07-1.62.11-2.43,3.8.43,7.87,1.14,11.65,1.84,0,.81-.06,1.62-.09,2.42,7.56,1.93,7.46-2.39,11.87-3.29,3-.42,6.32-.83,9.32-1-2.16-6.84-8.65-8.46-11.55-4.26l-2.73-.1c-2.65-2-5-3.72-7.68-5.72,9.67-9.07,17.27-1.46,25.08-5.47,8.42.89,10-10.93,18.74-4.36,7.25,3,11.92,2.37,13.18-1.9,7.65-.22,15.58-.44,23.5-.39,1.72,4.67,4.61.74,7.85,1.67,14.86-9.39,28.48,4.41,43.33-4.71,6.39,4,9.79.67,15.87-.71,4.34.45,8.67,1.17,13,1.89,7.16-8.09,14,5.44,23.39,2,4.07.7,7.86,1.4,11.67,1.82,5.48-.58,13.61-5.65,14.49-.76,4.94-.33,6,6.74,12.92,4.58,7.51-3.2,17.73.19,22.56-4.2,9.08,5,26.63-3.24,36.42,3.92,7.84-4.54,21.06-.76,31.45-1.15l6.54.27c-.4,2.95,3.17,2.56,5.08,2.64,1.91-.2,4.31,1.26,5.5-1.12-.18-2.18,3.59-.67,7.46,4.35,0,.28,0,.81,0,1.35-2.25,1.53-4.23,3.08-6.75,4.86,3.38,3.92,6.1,4,9,6.86.6-1.33.93-2.67,1.53-4,2.23-1,4.46-2.24,6.71-3.5,1.55,1.68,3.39,3.65,5,5.33,6.68,3.25,3.48-5,8.17-6.15,3.73,2.31,7.72,4.64,11.45,7,8.8-1.52,15.64,4.7,23.44,1a62.67,62.67,0,0,1,2.45,6.58c2.74-.16,5.21-.6,8-1,4.33.72,8.67,1.44,13,1.89,2.62-3.95,10.32-5.25,10.35.42l13.09.54c2.81-2,5.36-4.11,8.17-6.16-1.71-4.93,4.15-7.66,8.17-6.15.76,1.65,1.5,3.58,2.25,5.23,1.94-.74,3.6-1.48,5.54-2.21,1.58,1.42,3.45,2.57,5,4l5.18.22,7.9.32c6.59-1.08,8-2.11,10.51-3.36.08-1.88.15-3.51.22-5.13,2-1.8,3.69-3.36,5.4-5.18,7.13-.79,12.18,2.39,18.42,3.46,8.61,3.05,5.07,9.39,6,13.22l6.55.26c1,2.75,2.23,5.23,3.48,8C1454.5,1330.73,1448.49,1330.75,1443.33,1330.27Z"/><path class="cls-2" d="M1409.33,1228.88c-5.31,3-8,1.83-10.31-1.51C1403.51,1224.32,1409.63,1221.6,1409.33,1228.88Z"/><path class="cls-3" d="M1381.92,1257.76c-1.15,1.29-2.56,2.32-4,3.62-10.28-2.31-19.25,3.26-30-1.23-4.46,9,3.11,10.66.44,15.69-1.53,4-5,.88-7.79,3.47l0,1.35c-3,7.18-3.12,9.33-3.21,11.49-3,.69-6.07,1.37-9.38,2.32-2.34-2.8-5-5.34-7.31-8.14,1.63-6.15,7.73-2.11,8-7.51,1.94-.73,3.61-1.47,5.55-2.2-8.45-6.84-16.42-5.54-23.48-6.37l-5-5.33a46.56,46.56,0,0,1,2.94-5c1.66-.46,3.58-.66,5.23-1.13,5.2-.06,10.4-.39,15.59-.72,2.47-.17,4.41-.62,6.6-.81,1.19-2.65,2.13-5.32,3.05-7.71,2.78-1.24,5.28-2.48,8.06-3.73,3,1.2,5.92,2.13,8.89,3.07,4.32,1.26,7.16-1.33,10.74-2.26l2.45.1c4.31,1.25,8.92,2.26,13,3.24C1382.14,1252.63,1382,1255.06,1381.92,1257.76Z"/><path class="cls-4" d="M1455.88,1245.1c-6.05,1.1-12.1,2.22-18.42,3.3-4.94.62-9.61,1.23-14.55,1.84l-2.45-.1c-1.26-2.48-2.51-5.23-3.76-8-6-1.33-3.25,5.81-6.87,7.56-4.66.34-9.57.42-14.5.75-2.17-.62-4.06-1-6.49-1.61-1-2.47-2.24-5.22-3.49-8-6.25-.52-13.61-1.1-16.08,5.83l-2.45-.1c-3.58.93-6.42,3.52-10.74,2.26-3-.94-5.92-1.87-8.89-3.07-2.78,1.25-5.28,2.49-8.06,3.73l-9.27-.38c-2,2.08-2.19,6.67-.38,8.9-5.19.33-10.39.66-15.59.72l.54-13c-9.71-9.31-22.13.45-35.27-5.22-14-4.89-26,2.18-37.77-4.24,20.64-4,41.22.06,56.41-4.19l0,1.35c9.34-1.24,19.24,3.49,30.2,2.59,6.07-1.64,11.37-4.4,13,1.88l6.54.28A11.13,11.13,0,0,1,1350,1237c3.26.4,6.24,1.07,9.22,1.73.09-2.43.17-4.31.27-6.48,7.45-2.12,9.71-3.93,12-6l27.53,1.12c2.31,3.34,5,4.54,10.31,1.51,18.44,2.91,36.62,5.82,54.79,8.72C1461.28,1240.19,1458.71,1242.79,1455.88,1245.1Z"/><path class="cls-5" d="M1371.49,1226.25c-2.27,2.06-4.53,3.87-12,6-.1,2.17-.18,4-.27,6.48-3-.66-6-1.33-9.22-1.73a11.13,11.13,0,0,0-2.51,1.26L1341,1238c-1.65-6.28-7-3.52-13-1.88-11,.9-20.86-3.83-30.2-2.59l0-1.35c-15.19,4.25-35.77.17-56.41,4.19,11.75,6.42,23.78-.65,37.77,4.24,13.14,5.67,25.56-4.09,35.27,5.22l-.54,13c-1.65.47-3.57.67-5.23,1.13-2.12-1.43-4.25-2.87-6.39-4-4.06-.71-1.51,3.72-4.29,5l-10.36-.43-22.35-.91c-3.91,2-9.57.42-14.5.76-2.41-1.18-5.1-2.1-7.52-3-6.66-4-9.63-4.72-11.88-3.19-2.4-1.17-5.08-2.63-7.47-4.09a51.22,51.22,0,0,0-5.57,2.49c-2.95-1.22-5.92-2.14-8.88-3.08-3.6,1.21-7.2,2.41-10.79,3.35-3.25-.41-6.77-1.1-10.31-1.5l-6.54-.27c-3.49-8-5.07,3.58-13.08-.54a10.38,10.38,0,0,1-1.47,2.38c-5.11,4.66-11.78,1.13-15.64,2.06-2.68-1.47-5.07-2.92-7.74-4.38-2.71-.37-5.14-1-7.86-1.4-3.85.66-8,1.31-11.82,2l-1.35,0c-4.9-.47-9.51-1.2-14.4-1.94-8.7-.9-9.4,2.86-14.39,4.81-7.52-3-9,.45-12,.6-7.26-2.74-9.44-2.82-11.62-2.91l-18.26-.75c-1.69,1.28-3.15,3.66-5.34,3.57l-2.72-.12c-2.44-.37-5.15-1-7.86-1.67-3.21-1.21-9.35-4.7-14.11-1.66-5.44-.76-10.59-1.51-15.76-2-5.8,1.65-9.91,1.76-16,3.13-3.86.66-7.7,1.3-11.83,2.22-12.45-2.67-15.37,1.8-23.54,1.47l-13.26,3.51c-4.12.63-8,1.3-11.82,2-1.58-1.41-4.93.61-7.9-.33-15.66-4.15-23.92-2.32-31.46,1.42-4.39.63-9.06,1.25-13.19,2.17l-7.9-.33c-7-3.52-7.86-1.4-10.63-.43,0,.8-.07,1.62-.1,2.43l-11.73-.48c-.29.53-.85.77-1.41,1.29-2.44-.64-5.15-1-7.58-1.66a25.86,25.86,0,0,0-2.78,1.24c-3,.14-6.31.55-9.32,1a37.2,37.2,0,0,0-5.13-1.57c-2.46.18-5.2.61-8,1l-15.53-.62c6.95-3,11.28-8.73,15.7-3.42,2.74-.15,5.49-.58,8-.75,5.29-2.49,10.75-2.27,15.87-.7.9-2.13,1.81-4.25,2.72-6.38l5.44.23c1.09-6.17,4.84-4.67,7.86-4.82a37.89,37.89,0,0,0,2.89-3.93c3-.7,6.06-1.38,9.37-2,2.39,1.72,3.82,6.36,7.42,5.44,1.06-5.91-1.7-18.19,8.61-16.68,10.29,1.77,21.36-1.56,32.7,1.33,3.4-2.83,5.72-6.25,11.94-4.64-.41,3.23,3.15,2.83,5.33,2.92,6.29,0,7.53-3.74,14.29-2.13a25.43,25.43,0,0,1,2.67,1.47c4.25-3.88,3.78-5.52,6.81-6.21-6.12-3.76-7-1.37-9.21-1.73l-2.46-.1c-2.69-.91-5.1-1.82-7.8-2.75l7.91.32c1-3.2,1.89-6.13,2.84-9.07l4.08.17a73.15,73.15,0,0,1,15.21,8.46l2.73.11c2.81-1.78,5.32-3.29,8.11-4.81.81.31,1.6.89,2.41,1.19l6.64-2.16,7.91.32c.56-.52.86-1.05,1.42-1.3l7.9.34a66.88,66.88,0,0,1,6.43,3c-.1,2.44-.21,5.13-.32,7.56a24.71,24.71,0,0,0,2.34,2.8l1.37,0c4.46-2.52,8.93-4.76,13.4-7.28a10.81,10.81,0,0,0-1.26-2.49c5.44.5,10.6,1.25,15.77,1.72,2.77-1,5.27-2.21,8.06-3.45,4.6,1,9.47,2,14.33,3.29,10-3.1,17.11-4.43,22.13-.45,4.9.48,9.5,1.2,14.4,1.94l3.81.16a38.73,38.73,0,0,1,5.51-1.12c2.14.89,4,1.78,6.43,2.69,2-1.81,4.25-3.61,5.44-6.27,3.8.71,7.87,1.41,11.68,1.83,13.38-.26,27.05-.51,40.71-.76,4.38-.36,7.29-4.57,11.94-4.92l2.73.11c2.39,1.45,5.06,2.91,7.45,4.36l18.27.74c4.1-.37,8-.75,12-.85l5.18.2c32.69,1.62,65.37,3.49,98.06,5.37,6.8,7,5.66,1.58,7.9.32,7.6,1.12,15.47,2.25,23.34,3.39C1363.55,1226.73,1367.66,1226.36,1371.49,1226.25Z"/><path class="cls-2" d="M1336.08,1257.23c-2.19.19-4.13.64-6.6.81-1.81-2.23-1.62-6.82.38-8.9l9.27.38C1338.21,1251.91,1337.27,1254.58,1336.08,1257.23Z"/><path class="cls-6" d="M1413.82,1311c-2.5,1.25-3.92,2.28-10.51,3.36l-7.9-.32-5.18-.22a24.7,24.7,0,0,0-1.48,2.64c-1.27-2.21-2.54-4.42-3.55-6.63-1.94.73-3.6,1.47-5.54,2.21-.75-1.65-1.49-3.58-2.25-5.23-4-1.51-9.88,1.22-8.17,6.15-2.81,2-5.36,4.11-8.17,6.16l-13.09-.54c0-5.67-7.73-4.37-10.35-.42-4.35-.45-8.69-1.17-13-1.89-2.76.43-5.23.87-8,1a62.67,62.67,0,0,0-2.45-6.58c-7.8,3.73-14.64-2.49-23.44-1-3.73-2.31-7.72-4.64-11.45-7-4.69,1.16-1.49,9.4-8.17,6.15-1.57-1.68-3.41-3.65-5-5.33-2.25,1.26-4.48,2.52-6.71,3.5-.6,1.33-.93,2.67-1.53,4a25.39,25.39,0,0,0-2.78,1.23,94.69,94.69,0,0,0-6.21-8.09c2.54-2.06,4.53-4.14,6.8-6.21-3.87-5-7.64-6.53-7.46-4.35-1.19,2.38-3.59.92-5.5,1.12-1.91-.08-5.48.31-5.08-2.64l-6.54-.27c-10.39.39-23.61-3.39-31.45,1.15-9.79-7.16-27.34,1-36.42-3.92-4.83,4.39-15,1-22.56,4.2-6.92,2.16-8-4.91-12.92-4.58-.88-4.89-9,.18-14.49.76-3.81-.42-7.6-1.12-11.67-1.82-9.42,3.4-16.23-10.13-23.39-2-4.35-.72-8.68-1.44-13-1.89-6.08,1.38-9.48,4.75-15.87.71-14.85,9.12-28.47-4.68-43.33,4.71-3.24-.93-6.13,3-7.85-1.67-7.92,0-15.85.17-23.5.39-1.26,4.27-5.93,4.9-13.18,1.9-8.73-6.57-10.32,5.25-18.74,4.36-7.81,4-15.41-3.6-25.08,5.47,2.65,2,5,3.71,7.68,5.72l2.73.1c2.9-4.2,9.39-2.58,11.55,4.26-3,.15-6.29.56-9.32,1-3.87,1.19-8,2.1-11.87,3.29,0-.8.07-1.61.09-2.42-3.78-.7-7.85-1.41-11.65-1.84,0,.81-.07,1.62-.11,2.43l-4.08-.16a75,75,0,0,1-7.69,1l-2.73-.11c-3.51-1-7-1.91-10.25-2.85a31.67,31.67,0,0,0-2.94,5l-2.73-.1c-7.58-1.4-15.46-2.52-23.32-3.67l-2.84,2.59a38,38,0,0,0-5.12-1.56c0-1.35.11-2.7.16-3.77-1.56-2-3.4-3.65-5-5.62a59.23,59.23,0,0,0,4-5c8-2.38,16.23-9.34,24.19-10.63,2.8,5,7,1.9,14.34,3.29,0-1.08.08-1.9.11-2.7,6.85-.53,14-1.05,20.83-1.85,4.56,2.08,3.42-3.38,5.67-4.9l6.53.26c5.55-2.21,12.48-4.63,17.22-7.14,30.48,2.6,55.15.1,83.95-3,7.38-.24,7.36,6.79,18.26.75,3-.15,6.31-.55,9.31-.71,10.77,3.42,17.39,2.07,22.14,6,7.43-1.6,5.46-6.53,7.9-6.16l5.45.22c7.25,2.73,9-.45,11.77-.87,7.24,3.26,8.2-.21,10.37.42l1.36.06,15.8.64,3.81.16c3.77,1.5,7.8,3,11.57,4.26,5.19-.06,10.66-.38,15.85-.43l6.55.26c0,.26,0,.81,0,1.08,13.5,3.52,32.17,1,43,4.46,7-3.23,15.28.08,21-.49,1.71,4.93,6.75,1.89,10.19,4.46,2.72.4,5.14,1,7.86,1.41,8.67,1.44,20.25-1.34,26,5.12,4.44-1.71,8.87-3.16,13.3-4.59.78,1.11,1.53,2.49,2.57,3.88l6.54.27c.2,1.63-1.27,4.28.87,5.17,6.57-.27,8.85-2.61,13.41-7.29,2.68,1.19,5.37,2.11,7.79,3,2.21-.44,4.4-.63,6.6-1.08,1.43-1.56,2.87-3.4,4.3-5,2.34,2.8,5,5.34,7.31,8.14,3.31-1,6.34-1.63,9.38-2.32,3-.16,6.3-.55,9.32-1l2.45.1,10.63.43c1.58,1.42,3.44,2.84,5,4.26,6.56-.26,13.29-4.32,19.62.8,6,.52,12.24,1.32,18.21,2.1,4.62.46,7.16,5.16,11.45,7C1414,1307.44,1413.9,1309.07,1413.82,1311Z"/><path class="cls-7" d="M1328.62,1278.82c-2.17-.36-4-1-6.48-1.62-4.3-1.8-5,2.5-6.77,5.13a76.14,76.14,0,0,0-7.58-1.66c-2,1.54-3.69,3.36-5.66,4.91-.06,1.35-.12,2.7-.16,3.77-4.56,4.68-6.84,7-13.41,7.29-2.14-.89-.67-3.54-.87-5.17l-6.54-.27c-1-1.39-1.79-2.77-2.57-3.88-4.43,1.43-8.86,2.88-13.3,4.59-5.74-6.46-17.32-3.68-26-5.12-2.72-.38-5.14-1-7.86-1.41-3.44-2.57-8.48.47-10.19-4.46-5.76.57-14.08-2.74-21,.49-10.78-3.42-29.45-.94-43-4.46,0-.27,0-.82,0-1.08l-6.55-.26c-5.19.05-10.66.37-15.85.43-3.77-1.24-7.8-2.76-11.57-4.26l-3.81-.16-15.8-.64-1.36-.06c-2.17-.63-3.13,2.84-10.37-.42-2.74.42-4.52,3.6-11.77.87l-5.45-.22c-2.44-.37-.47,4.56-7.9,6.16-4.75-4-11.37-2.63-22.14-6-3,.16-6.3.56-9.31.71-10.9,6-10.88-1-18.26-.75-28.8,3.15-53.47,5.65-83.95,3-4.74,2.51-11.67,4.93-17.22,7.14l-6.53-.26c-2.25,1.52-1.11,7-5.67,4.9-6.86.8-14,1.32-20.83,1.85,0,.8-.06,1.62-.11,2.7-7.32-1.39-11.54,1.69-14.34-3.29-8,1.29-16.18,8.25-24.19,10.63a59.23,59.23,0,0,1-4,5c1.56,2,3.4,3.67,5,5.62,0,1.07-.11,2.42-.16,3.77-2.46.17-5.22.6-8,1-1.76,2.63-3.86,7.41-9.27,6.11-4.06-.71-7.85-1.41-11.67-1.83l-2.72-.12c-2.15-.62-4.33-1-6.48-1.61-8.27,1.83-15,5.61-25.07,5.46-7.11.26-14.21.24-21,.5l-1.36-.06c.06-1.35.12-2.7.16-3.78,2.77-1,5.26-1.68,8-2.37,0-1.35,4.18-2,2.94-5-9.87,1-11.4-8.3-19.41-5.93-1.92.2-3.58.67-5.5.86l-12.81-7,17.27-1.73c11.79-1.13,25.75-1.92,36.47,2.84,6.76,1.36,7.93-7,13.35-5.93,7.8-3.74,15.6-7.48,24.15-9.56,1.18-2.12,2.63-4.21,4.08-6.33,3-.13,6-.55,9.33-1l1.09.05c3.45,2.3,6.9,4.61,10.36,6.9,1.48-2.91,2.7-5.83,4.18-8.75-2.4-1.44-5.06-2.9-7.73-4.36,0-1.08.1-2.43.16-3.78.56-.52,1.12-.76,1.41-1.29l11.73.48c3,.66,6.23,1.06,9.21,1.73a14.87,14.87,0,0,1,1.52-3.73l7.9.33c4.13-.92,8.8-1.54,13.19-2.17,7.54-3.74,15.8-5.57,31.46-1.42,3,.94,6.32-1.08,7.9.33,3.85-.65,7.7-1.32,11.82-2,4.35.45,8.69,1.16,13,1.89,8-1,15.64-2.06,23.61-3.1,2.16.64,4.33,1,6.48,1.62,3.49,1.5,5.27-1.94,8-2.37,9.55.11,19.11,0,28.93.09,7.41-.76,14.8-1.27,22.2-1.79,0-.54,0-.8,0-1.35l2.72.12c2.42.91,5.12,1.82,7.8,3,5.2-.33,11.13,1.53,15.59-.72l2.61,2.82q4.58-1.86,9.16-3.68c2.16.62,4.33,1,6.49,1.6,2-1.26,3.17-3.92,5.61-3.55,2.14.9,4,1.79,6.43,2.7,2.43.64,4.39-.37,6.6-1.09,4.07.72,8.68,1.45,13,1.89l7.63.32c0-.82.06-1.62.1-2.43,2.74-.43,5.5-.86,8-1,0,.27,0,.81-.06,1.35a77.54,77.54,0,0,1,8-1c2.72.1,5.18.2,7.9.32,3.86-.93,10.53,2.6,15.64-2.06,3,1.47,6.16,2.94,9.1,4.42,3.38-2.3,8.45.34,11.84-2.23,1.56,1.69,3.39,3.67,5,5.35,2-1.28,3.64-2.28,5.34-3.57,4.07.44,7.87,1.13,11.93,1.84,0-.54,0-1.08.06-1.35,2.45.11,5.18.21,7.63.31l13.08.54c0,.81-.06,1.62-.1,2.43-7.59,5.09-13.58,4.85-20.93,4.55,0,.8-.07,1.61-.11,2.42,11.56,4.26,21.53.89,26,5.12,10.57,1.79,27.67,4.11,39.3.26l5,5.33c1.39-.47,2.49-.71,3.88-1.18,2.7.64,5.14,1,7.84,1.67.07-1.63.15-3.51.22-5.13,3.12-2.84,6.52-6,9.65-8.79-1.32-1.41-2.63-2.55-3.93-4,2.78-1.24.23-5.67,4.29-5,2.14,1.17,4.27,2.61,6.39,4a46.56,46.56,0,0,0-2.94,5l5,5.33c7.06.83,15-.47,23.48,6.37C1332.23,1277.35,1330.56,1278.09,1328.62,1278.82Z"/><path class="cls-2" d="M1316.36,1291.29c-2.2.45-4.39.64-6.6,1.08-2.42-.91-5.11-1.83-7.79-3,0-1.07.1-2.42.16-3.77,2-1.55,3.69-3.37,5.66-4.91a76.14,76.14,0,0,1,7.58,1.66c1.87,1.16,3.44,2.58,5.29,4C1319.23,1287.89,1317.79,1289.73,1316.36,1291.29Z"/><path class="cls-2" d="M903.1,1210.88a38.28,38.28,0,0,0-5.23,1.14c-5.16-.75-10.59-1.51-15.75-2,0-1.34.11-2.69.15-3.78l-11.72-.47a12.45,12.45,0,0,0-2.61-2.81c2.94-5,10.58-4.7,14.5-.76.6-1.33.92-2.39,1.52-3.72,6.53.54,13,1.35,19.57,2.15,4.89.48,9.5,1.2,14.39,1.67a67.57,67.57,0,0,0,1.05,7.88C913.49,1210.5,908.31,1210.56,903.1,1210.88Z"/><path class="cls-4" d="M727,1316.65c1.7,11.69-18.52-1-13.72,14.85.46,2.18.64,4.35,1.09,6.53-.06,1.61-.14,3.5-.21,5.13-2.73-.12-5.18-.22-7.91-.32-.89,1.85-1.77,3.43-2.67,5.29-3.61,1.47-7.23,2.95-10.85,4.7-3.54-6.63-3.43-9.34-3.33-11.76a65.54,65.54,0,0,1,6.66-2.44c-.43-3-.84-6.24-1-9.23,0-.27,0-.8,0-1.08.1-2.43.18-4.31.27-6.47l-9.27-.38c-.21-1.36-.7-2.74-.92-4.1-.94-3.55-1.62-6.81-2.29-10.35,4.38-.37,8.77-.73,13.14-.82l1.36,0c-.09,2.16-.19,4.32-.27,6.48a33.2,33.2,0,0,1,3.7,2.86c3.62-1.75,7.23-3.22,10.85-5-.93-3.83-1.58-7.64-2.24-11.72,0-.28,0-.81.06-1.35a54.74,54.74,0,0,1,1.63-6.41c-1.31-1.15-2.62-2.55-3.93-4-.15-2.71-.6-5.16-.76-7.87,0-.28,0-.81.06-1.35,2.48-.71,5.24-1.41,7.73-2.12,4.92-.07,6.58,5.67,7.53,9.23l-.27,6.48c.49,1.36.71,2.72,1.19,4.1-1.45,2.1-2.9,4.2-4.08,6.32.2,1.62.67,3.54.87,5.17a26.42,26.42,0,0,0-1.2,2.65C721.15,1312.09,724.07,1314.1,727,1316.65Z"/><path class="cls-2" d="M709.81,1354.87l-6.27-6.74c.9-1.86,1.78-3.44,2.67-5.29,2.73.1,5.18.2,7.91.32a49.5,49.5,0,0,0,2.5,5.51A74.07,74.07,0,0,0,709.81,1354.87Z"/><path class="cls-2" d="M666.77,1286.9c1.46,4.38,2.92,8.77,4.65,13.15,0,.82-.07,1.63-.11,2.43a24.85,24.85,0,0,0-1.53,4c.05,5.41.36,11.09.67,16.79,1.47,4.1,4.25,9.35-.38,9.17l-4.09-.17c.11-2.7.21-5.13.33-7.82-2.75-6.07-9.66-10.67-1.76-16.84-6-7-8.82-17.65-.5-20.83,1.57-4.79,3.12-9.32,4.42-14.14l4.09.17a24.71,24.71,0,0,1,2.34,2.8C672.29,1279.28,669.4,1283,666.77,1286.9Z"/><path class="cls-3" d="M1443.86,1317.32c-.93-3.83,2.61-10.17-6-13.22,4.38-.37,8.76-.45,13.14-.82,4.22,3.42,5.74,12.93-.59,14.3Z"/><path class="cls-3" d="M1455.67,1250.23c-.93,2.66-1.86,5.33-2.78,7.72-14,8.08-6-6.19-15.7-3.08l-6.55-.26c-2.67-1.46-5.06-2.91-7.73-4.37,4.94-.61,9.61-1.22,14.55-1.84,6.32-1.08,12.37-2.2,18.42-3.3C1455.77,1247.81,1455.72,1249.15,1455.67,1250.23Z"/><path class="cls-3" d="M1409.83,1249.71c-4,4.7-.32,14-9.43,10.16-3.73-2.59-3.29-6.36-5.07-9.41C1400.26,1250.13,1405.17,1250.05,1409.83,1249.71Z"/><path class="cls-3" d="M1390.72,1334.6c-2.17-.08-4.36-.17-6.42-3-2.72-.1-5.46-.22-7.91-.32-2.75.43-5.22.87-8,1a21.68,21.68,0,0,0-1.2-3.83c0-.54,0-1.08.06-1.36,3,.13,6.26.27,9.26.38a61.14,61.14,0,0,1,5.34-3.56,23.64,23.64,0,0,0,2.62,2.54c3-.15,6-.56,9-1l1.3,1.41C1393.39,1329.57,1391.93,1332,1390.72,1334.6Z"/><path class="cls-3" d="M1387.65,1277.46c-8.63,4-14.05,3.2-15.54-.64C1380.45,1273.37,1385.11,1272.76,1387.65,1277.46Z"/><path class="cls-3" d="M1359.73,1226.85c-7.87-1.14-15.74-2.27-23.34-3.39l-2.61-2.8a44.08,44.08,0,0,0-5.29,2.48c-32.69-1.88-65.37-3.75-98.06-5.37.93-2.66,1.85-5,2.77-7.72,9.5,1.48,18.68,4,26.23-.27,8.88,3.07,16.8-3.65,26.32-2.72.45,2.19-1,5.1,1.09,6.54,9.23,1.19,18-12.24,24.91-1.69,4.13-.91,8-2.1,12.15-3.28,3,.93,5.94,1.86,8.89,3.06a26.63,26.63,0,0,1,2.62,2.54c3,.66,6,1.06,8.93,1.72,4.9.47,12.84-6.5,14.4,1.94,2.5-1.25,5-2.77,8-2.38-1.24,3.74,3.33,5.27,4.74,10.74C1367.66,1226.36,1363.55,1226.73,1359.73,1226.85Z"/><path class="cls-3" d="M1308.36,1326.1l-7.91-.32c.06-1.35.12-2.7.17-4l7.9.32C1308.46,1323.4,1308.41,1324.75,1308.36,1326.1Z"/><path class="cls-3" d="M1279.68,1326.27c-4.24,3.35-7.56,4.56-7.9-.32C1274.23,1326.06,1277,1326.17,1279.68,1326.27Z"/><path class="cls-3" d="M1251,1321.05c-17.5,7.12-30.34.92-44.53.88-17.08,3.63-41.27,1-58.94-1.06-1.25-2.48-4.3-1.25-6.48-1.61-.55.25-.84.77-1.41,1.29-27.68,2.38-52.51-4.58-78.71,1.91-2.08-2.5-6-1.31-8.94-1.7-9.75,4.46-24.59.61-36.91,1.19-4,5-13.92,0-19.78,3-14.12-1.66-26.48,6.48-40.72,1,1.42-1.29,3-5.56,8.23-7.5l.32-7.83c7.12-.25,13.94-.24,21-.49a34.78,34.78,0,0,0,1.15,5.19c2.52-1.53,5.33-3.31,8.12-4.81,7.37,0,14.75-.21,22.13-.45,4,1.25,9.7,2.83,13.18-1.89,2.71.38,5.15,1,7.85,1.67,4.38-.36,8.76-.73,13.14-.82,3.84-.38,8-.75,11.77-.86l1.37.06c3-.69,6.06-1.38,9.38-2.33,3-.14,6-.55,9-.71,3-.41,6.31-.82,9.33-1,3,.39,6,1,8.94,1.72l26.16,1.08c2.73.1,5.45.21,7.91.32,2.72.1,5.17.2,7.9.32,1.63.07,3.54.15,5.18.2,2.38,1.72,6.82,0,6.38,4.05,5.46,0,11.4,1.55,17.28-2,5.66,8.34,23.5,6.09,32.27,5.37,14.17.58,24.17,2.88,40.55,3C1245.86,1319.22,1248.27,1320.13,1251,1321.05Z"/><path class="cls-3" d="M1213.2,1218.42l-18.27-.74c-2.39-1.45-5.06-2.91-7.45-4.36,2.73-6.65,10.38-.39,13.08-6,3.41-3.37,8.94,1.44,13,3.23l9.27.38c-.62,1.87,1.52,2.76,2.46,6.59C1221.15,1217.67,1217.3,1218.05,1213.2,1218.42Z"/><path class="cls-3" d="M1132.1,1218.89c-3.81-.42-7.88-1.12-11.68-1.83l-4-2.59c-6.65,2.16-4.12,6.86-7.9,6.17a38.73,38.73,0,0,0-5.51,1.12l-3.81-.16c-4.9-.74-9.5-1.46-14.4-1.94-5-4-12.17-2.65-22.13.45-4.86-1.28-9.73-2.28-14.33-3.29-2.79,1.24-5.29,2.49-8.06,3.45-5.17-.47-10.33-1.22-15.77-1.72l-15.53-.64a66.88,66.88,0,0,0-6.43-3l-7.9-.34c-.56.25-.86.78-1.42,1.3l-7.91-.32c-2.34-2.81-5-5.34-7.3-8.14-3.23-1.22-4.75,2.51-8,1l-10.63-.44-7.63-.31a36.1,36.1,0,0,0-1.58,5.07l-4.08-.17c-3.79-1-7.57-1.93-11.62-3.17-4.92.34-9.58.68-14.5.76l-1.08,0a67.57,67.57,0,0,1-1.05-7.88c2.51-1,5.29-2.22,8.07-3.46,2.45.11,5.18.21,7.58,1.66,3-1,6.34-1.63,9.37-2.31,2.83-2.32,6.85-.53,10.42-.93l7.9.32c10.86,1.54,21.72,2.78,32.6,4a24.78,24.78,0,0,1,2.77-1.24c4.34,1,8.65,2,13,3.23,1.63.08,3.54.15,5.18.22,6.65,4.05,9.37,4.44,11.61,2.9,2.2-.18,4.4-.62,6.59-.81,5.64,2.12,1.89-5.87,6.77-5.13,1.55,2,3.39,3.66,5,5.61,4.08.17,11.19,6.41,12-.86,3.2,2,9.47,2.29,13.09.54,4.84,1.82,5.7.77,11.83-2.22.54,6.78,2.18,6.57,6.48,1.61,9.64,4.72,20.61,3.55,28.56,2.52,3.78,1,9.43,3.1,10.69-.91,10.65-.11,17.4,1.79,27.58-.22-2.71-6.88,7-3.23,9.1-2.06,4.31,8,15.52.89,20.67,8.41-4.65.35-7.56,4.56-11.94,4.92C1159.15,1218.38,1145.48,1218.63,1132.1,1218.89Z"/><path class="cls-3" d="M945.5,1326.67c-5.58,2.75-15.17,3.7-18.26-.75C930.41,1322,935.77,1324.38,945.5,1326.67Z"/><path class="cls-3" d="M908.59,1327.86c-4,3.08-11.58,2.78-14.22.77C894.25,1324.85,899.72,1324.52,908.59,1327.86Z"/><path class="cls-3" d="M888.92,1328.41c-5.34,3.56-9.15,3.41-13.19,1.9-3.54-.15-6.82-.29-10.35-.42,1.13-1,2.68-5.31,10.45-2C880.19,1328.06,884.56,1328.23,888.92,1328.41Z"/><path class="cls-3" d="M855,1329.45c-5.61,3.83-9.42,3.68-13.19,2.17-3.57.66-7.15,1.33-10.74,2.26-3.85.66-8,1.3-11.82,1.95-7.89-.59-12.22,4.92-22.56,4.21-3.86.93-7.71,1.58-11.83,2.22-3.28.15-5.36-2.37-8.89-3.06.89-1.58,1.79-3.44,2.67-5,2.73.11,5.18.22,7.91.32,3.5,1,6.74,1.9,10.24,3.13,1.17-1.84,2.06-3.44,2.94-5,2.15.9,6.18,2.42,8-2.37l2.46.1c3,.93,8.07,2.76,10.74-2.27l2.45.11c2.68,1.19,5.38,2.1,7.79,3,4.66-.36,3.44-3.65,10.75-2.27C846,1329.1,850.66,1329.28,855,1329.45Z"/><path class="cls-3" d="M753.52,1341c-.41,10-9.47,4.74-14.65,4.53-4.58,5-14.28,1.85-14.83,8.58-4.67.62-4.58-1.54-7.42-5.43a49.5,49.5,0,0,1-2.5-5.51c5.77-.85,11.55-2,17.06-3.09l4.09.17,1.36,0c1.11-.49,2.48-.71,3.87-1.19C744.84,1339.82,749.19,1340.27,753.52,1341Z"/><path class="cls-3" d="M709.81,1354.87c.69,3,1.91,6.57-.27,6.48-1.25,3.73-3.22,5.27-5.77,7.33-4.25-2.88-5.12-8.32-11.13-14.51-.92,2.4-1.85,5.06-2.77,7.45-.73-8.68-12.37-4.56-12.71-9.43,0-1.08.08-1.9.11-2.7-2.31-3.34-5.71-7-7.53-9.23.11-2.7.23-5.39.33-7.82,4.63.18,1.85-5.07.38-9.17-.31-5.7-.62-11.38-.67-16.79a24.85,24.85,0,0,1,1.53-4c3.77,1.52,7.8,3,11.56,4.54.67,3.54,1.35,6.8,2.29,10.35.22,1.36.71,2.74.92,4.1,1.27,2.49,2.52,5.24,3.78,7.72-.17,4-.33,7.83-.5,11.88-.1,2.42-.21,5.13,3.33,11.76,3.62-1.75,7.24-3.23,10.85-4.7Z"/><path class="cls-3" d="M676,1248.35c-1.52,3.72-3,5.83-5.39,4.93-5.07-2.65-5.19-6.44-4.75-10.47,3.11-2.58,7.68-.77,10.31,1.5C676.11,1246.47,676.07,1247.28,676,1248.35Z"/><path class="cls-6" d="M1420.46,1250.14c-2.58,2.87-10.54,3.89-10.63-.43,3.62-1.75.91-8.89,6.87-7.56C1418,1244.91,1419.2,1247.66,1420.46,1250.14Z"/><path class="cls-6" d="M1388.84,1248.85c-1,3.74-4.72,2-6.59,1.09-4.06-1-8.67-2-13-3.24,2.47-6.93,9.83-6.35,16.08-5.83C1386.6,1243.63,1387.86,1246.38,1388.84,1248.85Z"/><path class="cls-6" d="M816.19,1317.6c3.82.42,7.61,1.12,11.67,1.83,5.41,1.3,7.51-3.48,9.27-6.11-1.76,2.63-3.86,7.41-9.27,6.11C823.8,1318.72,820,1318,816.19,1317.6Z"/><path class="cls-6" d="M813.32,1321.26c-3,.42-6.77-1.35-9.49,5-1.68.74-3.61,1.48-5.28,2.22-3,.42-6,.57-9.06,1a66,66,0,0,1-7.79-3c-2.82,2.31-7.13.79-10.79,3.61l-9-.37a9.31,9.31,0,0,0-2.4-7.93l1.36.06c6.84-.26,13.94-.24,21-.5,10.1.15,16.8-3.63,25.07-5.46,2.15.63,4.33,1,6.48,1.61C813.42,1318.84,813.36,1320.19,813.32,1321.26Z"/><path class="cls-6" d="M714.12,1343.16c.07-1.63.15-3.52.21-5.13,3.61-1.2,6.92-2.15,10.52-3.36,3.61-1.46,4.26,2.61,6.33,5.4C725.67,1341.2,719.89,1342.31,714.12,1343.16Z"/><path class="cls-4" d="M1491.47,1242.77c-5,8.18-14.06,3.22-21.19,4.27-.16-3-.56-6.24-1-9.23C1476.87,1239.47,1484.17,1241.13,1491.47,1242.77Z"/><path class="cls-4" d="M1336.39,1223.46c-2.24,1.26-1.1,6.71-7.9-.32a44.08,44.08,0,0,1,5.29-2.48Z"/><path class="cls-4" d="M1301.91,1264.76c-3.13,2.84-6.53,6-9.65,8.79-.07,1.62-.15,3.5-.22,5.13-2.7-.66-5.14-1-7.84-1.67-1.39.47-2.49.71-3.88,1.18l-5-5.33c-11.63,3.85-28.73,1.53-39.3-.26-4.47-4.23-14.44-.86-26-5.12,0-.81.07-1.62.11-2.42,7.35.3,13.34.54,20.93-4.55,0-.81.07-1.62.1-2.43l-13.08-.54c-2.45-.1-5.18-.2-7.63-.31,0,.27,0,.81-.06,1.35-4.06-.71-7.86-1.4-11.93-1.84-1.7,1.29-3.38,2.29-5.34,3.57-1.57-1.68-3.4-3.66-5-5.35-3.39,2.57-8.46-.07-11.84,2.23-2.94-1.48-6.15-3-9.1-4.42a10.38,10.38,0,0,0,1.47-2.38c8,4.12,9.59-7.45,13.08.54l6.54.27c3.54.4,7.06,1.09,10.31,1.5,3.59-.94,7.19-2.14,10.79-3.35,3,.94,5.93,1.86,8.88,3.08a51.22,51.22,0,0,1,5.57-2.49c2.39,1.46,5.07,2.92,7.47,4.09,2.25-1.53,5.22-.86,11.88,3.19a50.1,50.1,0,0,1-4.25,3.61c7.47,4.36,8.78-1,11.77-.6,4.93-.34,10.59,1.25,14.5-.76l22.35.91,10.36.43C1299.28,1262.21,1300.59,1263.35,1301.91,1264.76Z"/><path class="cls-4" d="M1143.72,1254.51a77.54,77.54,0,0,0-8,1c0-.54,0-1.08.06-1.35-2.46.17-5.22.6-8,1,0,.81-.06,1.61-.1,2.43l-7.63-.32c-4.35-.44-9-1.17-13-1.89-2.21.72-4.17,1.73-6.6,1.09-2.42-.91-4.29-1.8-6.43-2.7,5-2,5.69-5.71,14.39-4.81,4.89.74,9.5,1.47,14.4,1.94l1.35,0c3.85-.64,8-1.29,11.82-2,2.72.39,5.15,1,7.86,1.4,2.67,1.46,5.06,2.91,7.74,4.38C1148.9,1254.71,1146.44,1254.61,1143.72,1254.51Z"/><path class="cls-4" d="M1120.42,1217.06c-1.19,2.66-3.45,4.46-5.44,6.27-2.41-.91-4.29-1.8-6.43-2.69,3.78.69,1.25-4,7.9-6.17Z"/><path class="cls-4" d="M1044,1255.56c-7.4.52-14.79,1-22.2,1.79-9.82-.12-19.38,0-28.93-.09-2.75.43-4.53,3.87-8,2.37-2.15-.62-4.32-1-6.48-1.62-8,1-15.65,2.07-23.61,3.1-4.34-.73-8.68-1.44-13-1.89l13.26-3.51c8.17.33,11.09-4.14,23.54-1.47,4.13-.92,8-1.56,11.83-2.22,6.05-1.37,10.16-1.48,16-3.13,5.17.48,10.32,1.23,15.76,2,4.76-3,10.9.45,14.11,1.66,2.71.65,5.42,1.3,7.86,1.67C1044.05,1254.76,1044.05,1255,1044,1255.56Z"/><path class="cls-4" d="M978.71,1217.76c-.81-.3-1.6-.88-2.41-1.19-2.79,1.52-5.3,3-8.11,4.81l-2.73-.11a73.15,73.15,0,0,0-15.21-8.46,36.1,36.1,0,0,1,1.58-5.07l7.63.31,10.63.44c3.21,1.48,4.73-2.25,8-1,2.34,2.8,5,5.33,7.3,8.14Z"/><path class="cls-8" d="M948.08,1232.18l-2.73-.11c0-.54,0-.81.06-1.36-6.76-1.61-8,2.12-14.29,2.13-2.18-.09-5.74.31-5.33-2.92-6.22-1.61-8.54,1.81-11.94,4.64-11.34-2.89-22.41.44-32.7-1.33-10.31-1.51-7.55,10.77-8.61,16.68-3.6.92-5-3.72-7.42-5.44-3.31.67-6.33,1.35-9.37,2a37.89,37.89,0,0,1-2.89,3.93c-3,.15-6.77-1.35-7.86,4.82l-5.44-.23c-.91,2.13-1.82,4.25-2.72,6.38-5.12-1.57-10.58-1.79-15.87.7-2.46.17-5.21.6-8,.75-4.42-5.31-8.75.45-15.7,3.42-1.09,0-1.91-.09-2.73-.11-1.24-2.76-2.24-5.23-3.49-8-4.94.61-9.6,1.24-14.56,2.12-2.78,1.5-5.31,3-8.11,4.8-2.46.16-5.21.6-8,1-.05,1.08-.1,2.43-.16,3.78a49.25,49.25,0,0,0-5.29,2.48l-11.72-.48c-3.15,3.66-6.58,7.3-9.75,11.23l-3.82-.16c-.53-6.78-2.18-6.57-3.54-6.63-2.52,1.52-1.31,5.09-1.69,7.77-1.18,2.11-4,3.35-2.77,1-1-3.56-2.61-9.3-7.53-9.23-2.49.71-5.25,1.41-7.73,2.12-4.81-2.62-7-2.72-9.17-2.81l-9.27-.38c.11-2.7.22-5.13.33-7.82a53,53,0,0,0,5.56-2.48c-.29-6-.59-11.92-.61-18.13,0-.27,0-.81.06-1.35l3.81.16,1.37.06c4.33.71,8.67,1.42,13,1.87l2.73.12,7.63.31c2-1.27,3.16-3.92,5.61-3.55,1.64,0,3.27.14,5.18.2,2.4,1.46,5.07,2.65,7.74,4.11,4.65-.08,10.32,1.5,15.6-.72-.72-2.46-1.42-5.2-2.14-7.65-4.07-.71-7.86-1.4-11.94-1.84,3.15-3.38,9.63-1.77,9.54-6.09,4.93-.35,9.58-.7,14.5-.77,8.81-1.8,15.52-5.57,27.91-8-10.1.12-9.65-4.46-11.72-7a19,19,0,0,0,2.88-3.67c2.69.93,5.11,1.84,7.79,3,.14-3.24.26-6.21.38-9.18,2.21-.45,4.4-.63,6.6-1.08a22.92,22.92,0,0,0,1.2,4.1c10.46-2,12.2,8.34,19.52,3.23l0-1.35,10.36.43c3.58-.66,6.88-1.35,10.46-2a55.57,55.57,0,0,0,1.63-6.43l18.26.74c1.77,3.6,3.26,6.9,5,10.49-2.93,4.74-11.68-1.56-12.27,6,1.85,1.43,3.43,2.84,5.29,4.27,2.73-.16,6,.78,7.74-2.38,13.14-.82,22.74-1.78,34.23-2.39l15.8.65c2.17.36,4.33,1,6.5,1.34,3.83-.11,7.94-.48,11.76-.6,2.7.93,5.11,1.84,7.8,2.75l2.46.1c2.17.36,3.09-2,9.21,1.73C951.86,1226.66,952.33,1228.3,948.08,1232.18Z"/><path class="cls-4" d="M943.33,1221.71l-7.91-.32c-3.82.12-7.93.49-11.76.6l-3.82-6.63c-.89,1.84-1.78,3.43-2.68,5.29l-15.8-.65c-1.26-2.75-2.23-5.49-3.49-8a38.28,38.28,0,0,1,5.23-1.14c5.21-.32,10.39-.38,15.87-.7l1.08,0c4.92-.08,9.58-.42,14.5-.76,4.05,1.24,7.83,2.21,11.62,3.17C945.22,1215.58,944.29,1218.51,943.33,1221.71Z"/><path class="cls-4" d="M922,1260.84c-15.66-4.15-23.92-2.32-31.46,1.42C898.12,1258.52,906.38,1256.69,922,1260.84Z"/><path class="cls-5" d="M854.1,1220.5c.59-7.54,9.34-1.24,12.27-6-1.77-3.59-3.26-6.89-5-10.49a58.84,58.84,0,0,1,6.6-1.07,12.45,12.45,0,0,1,2.61,2.81c-.09,2.15-.17,4-.26,6.47,6.48,1.62,7.55-4.55,11.83-2.22,5.16.49,10.59,1.25,15.75,2,1.26,2.49,2.23,5.23,3.49,8-11.49.61-21.09,1.57-34.23,2.39-1.77,3.16-5,2.22-7.74,2.38C857.53,1223.34,856,1221.93,854.1,1220.5Z"/><path class="cls-4" d="M882.12,1210c-4.28-2.33-5.35,3.84-11.83,2.22.09-2.42.17-4.32.26-6.47l11.72.47C882.23,1207.33,882.17,1208.68,882.12,1210Z"/><path class="cls-4" d="M868,1267.83c-3-.67-6.24-1.07-9.21-1.73,0-.81.07-1.63.1-2.43,2.77-1,3.68-3.09,10.63.43A14.87,14.87,0,0,0,868,1267.83Z"/><path class="cls-4" d="M849,1283.8c-3.46-2.29-6.91-4.6-10.36-6.9l-1.09-.05c-3.3.41-6.32.83-9.33,1a64.23,64.23,0,0,1-3,6.38c-7.71,1.58-12.62,7.85-22.4,6.92,1.12,5.72-8.69-1.17-6.81,6.21-16.17,8-31.09-7.49-47.27.77-3,.14-7-1.37-9.31.69,1.76,3.59,6.14,3.24,6.27,6.75-.05,1.35-.11,2.7-.17,4-3.57.68-6.88,1.34-10.45,2a25.27,25.27,0,0,1-3.66-3.94c.39-3,1.08-6.17,1.47-9.13,9.09-8.55,14.15-12.12,21.52-12.09,3.05-1,6.38-2.18,9.43-3.4-3-.94-6.2-1.88-9.15-3.07l.31-7.57a49.25,49.25,0,0,1,5.29-2.48l7.9.32a77.33,77.33,0,0,1,7.85,1.68c6.61-1.36,11.63-3.85,18.48-4.39l.05-1.34c.82,0,1.64.06,2.73.11l15.53.62c2.76-.41,5.5-.84,8-1a37.2,37.2,0,0,1,5.13,1.57c3-.42,6.31-.83,9.32-1a25.86,25.86,0,0,1,2.78-1.24c2.43.64,5.14,1,7.58,1.66-.06,1.35-.12,2.7-.16,3.78,2.67,1.46,5.33,2.92,7.73,4.36C851.71,1278,850.49,1280.89,849,1283.8Z"/><path class="cls-5" d="M793.93,1223.18c-12.39,2.47-19.1,6.24-27.91,8-4.92.07-9.57.42-14.5.77.09,4.32-6.39,2.71-9.54,6.09,4.08.44,7.87,1.13,11.94,1.84.72,2.45,1.42,5.19,2.14,7.65-5.28,2.22-10.95.64-15.6.72-2.67-1.46-5.34-2.65-7.74-4.11-1.91-.06-3.54-.15-5.18-.2-2.45-.37-3.64,2.28-5.61,3.55l-7.63-.31c.92-2.4,1.85-5.06,2.78-7.73l-7.9-.32-1.09-.05c0-1.08.1-2.43.15-3.77.12-2.7.21-5.13.33-7.83-1.35-6.81-3.22-8-2.3-10.36a49.36,49.36,0,0,1,5.29-2.49l3.82,6.64c5.72.24,11.68,1.56,15.7-3.13q.12-3.24.26-6.48l14.45.59c5-.88,9.62-1.5,14.56-2.11,3.91-2.27,8-2.1,11.81-2,4.41-.9,8.81-1.53,13.2-2.16l7.9.32c-.12,3-.24,5.94-.38,9.18-2.68-1.19-5.1-2.1-7.79-3a19,19,0,0,1-2.88,3.67C784.28,1218.72,783.83,1223.3,793.93,1223.18Z"/><path class="cls-4" d="M731.34,1211.7q-.14,3.24-.26,6.48c-4,4.69-10,3.37-15.7,3.13l-3.82-6.64c3-.68,6.34-1.36,9.37-2.05C722.39,1210.25,727.79,1211.83,731.34,1211.7Z"/><path class="cls-4" d="M714.3,1247.22l-2.73-.12c-4.35-.45-8.69-1.16-13-1.87,3.09-2,6.17-4.08,9.54-6.11l1.09.05,7.9.32C716.15,1242.16,715.22,1244.82,714.3,1247.22Z"/><path class="cls-4" d="M708.57,1227.52c-.12,2.7-.21,5.13-.33,7.83-3.21-1.49-6.15-3-9.1-4.15a23.56,23.56,0,0,1,1.52-4c1.79-3.44,3.83-6.6,5.61-10C705.35,1219.55,707.22,1220.71,708.57,1227.52Z"/><path class="cls-4" d="M693.31,1246.36c-7.95,1-13,4.6-17.28,2,0-1.07.08-1.88.17-4a44.85,44.85,0,0,0,2.94-5c4.83,1.82,9.39,3.9,14.23,5.72C693.35,1245.55,693.33,1246.09,693.31,1246.36Z"/><path class="cls-7" d="M1470.28,1247c-3.6,1.22-6.93,2.43-10.52,3.36l-4.09-.17c0-1.08.1-2.42.21-5.13,2.83-2.31,5.4-4.91,8.24-7.5l5.17.21C1469.72,1240.8,1470.12,1244.07,1470.28,1247Z"/><path class="cls-7" d="M1250.77,1260.23c-3-.39-4.3,5-11.77.6a50.1,50.1,0,0,0,4.25-3.61C1245.67,1258.13,1248.36,1259.05,1250.77,1260.23Z"/><path class="cls-7" d="M749.16,1321.34a20.2,20.2,0,0,0-13.51,9.72c-.13,3-.27,6.21-.38,9.18l-4.09-.17c-2.07-2.79-2.72-6.86-6.33-5.4-3.6,1.21-6.91,2.16-10.52,3.36-.45-2.18-.63-4.35-1.09-6.53-4.8-15.87,15.42-3.16,13.72-14.85-2.19.19-4.39.64-6.58.81,1.51-3.44-2-4.94-2.14-7.65a26.42,26.42,0,0,1,1.2-2.65l10.64.43,1.36.06a25.27,25.27,0,0,0,3.66,3.94c1.54,8.7,7.94,6,11.44,7A12.9,12.9,0,0,0,749.16,1321.34Z"/><path class="cls-7" d="M708.09,1239.12c-3.37,2-6.45,4.07-9.54,6.11l-1.37-.06c.74-4.57,1.22-9.41,2-14,3,1.19,5.89,2.66,9.1,4.15C708.19,1236.69,708.13,1238,708.09,1239.12Z"/><path class="cls-7" d="M695.08,1328.32c0,.28,0,.81,0,1.08l-5.18-.21c-1.26-2.48-2.51-5.23-3.78-7.72l9.27.38C695.26,1324,695.18,1325.89,695.08,1328.32Z"/><path class="cls-5" d="M923.66,1222c-2.17-.36-4.33-1-6.5-1.34.9-1.86,1.79-3.45,2.68-5.29Z"/><path class="cls-5" d="M841.45,1209.72c-3.58.65-6.88,1.34-10.46,2l-10.36-.43,0,1.35c-7.32,5.11-9.06-5.23-19.52-3.23a22.92,22.92,0,0,1-1.2-4.1c8.55-2.08,13.56-4.31,19.78-3l23.44,1A55.57,55.57,0,0,1,841.45,1209.72Z"/><path class="cls-5" d="M819.17,1246.37l-7.9-.32c-1.84-1.7-3.4-3.66-5-5.34-13.2-4.06-20.44,5.91-31.67.06,0-1.08.08-1.89.11-2.7,4.94-.61,9.61-1.23,14.56-2.11,8.27-1.83,20.2,0,30.25,1.24C819.43,1240.17,819.29,1243.4,819.17,1246.37Z"/><path class="cls-5" d="M794.54,1267.52c-6.85.54-11.87,3-18.48,4.39a77.33,77.33,0,0,0-7.85-1.68l-7.9-.32c.06-1.35.11-2.7.16-3.78,2.75-.42,5.5-.86,8-1,2.8-1.79,5.33-3.3,8.11-4.8,5-.88,9.62-1.51,14.56-2.12,1.25,2.76,2.25,5.23,3.49,8Z"/><path class="cls-5" d="M763.86,1283c-5.12,4.92-7.3,4.83-9.43,3.4-7.37,0-12.43,3.54-21.52,12.09-3.51-1-6.75-1.9-10.26-2.85-.48-1.38-.7-2.74-1.19-4.1l.27-6.48c-1.19,2.38,1.59,1.14,2.77-1,.38-2.68-.83-6.25,1.69-7.77,1.36.06,3-.15,3.54,6.63l3.82.16c3.17-3.93,6.6-7.57,9.75-11.23l11.72.48-.31,7.57C757.66,1281.15,760.9,1282.09,763.86,1283Z"/><path class="cls-5" d="M709.47,1297.56l-2.73-.12c-3.12,2.85-6.25,6-9.37,8.81l-1.36,0c-4.37.09-8.76.45-13.14.82-3.76-1.51-7.79-3-11.56-4.54,0-.8.07-1.61.11-2.43-1.73-4.38-3.19-8.77-4.65-13.15,2.63-4,5.52-7.62,8.13-11.29a24.71,24.71,0,0,0-2.34-2.8l-4.09-.17c-5.86-3.48-2.61-9.57-3.22-14.45,1.7-1.56,3.69-3.36,5.39-4.91,2.42.9,3.87-1.21,5.39-4.93,4.26,2.61,9.33-1,17.28-2,0,6.21.32,12.18.61,18.13a53,53,0,0,1-5.56,2.48c-.11,2.69-.22,5.12-.33,7.82l9.27.38c2.18.09,4.36.19,9.17,2.81,0,.54-.05,1.07-.06,1.35.16,2.71.61,5.16.76,7.87,1.31,1.4,2.62,2.8,3.93,4A54.74,54.74,0,0,0,709.47,1297.56Z"/><path class="cls-5" d="M696,1338.63a65.54,65.54,0,0,0-6.66,2.44c.17-4,.33-7.84.5-11.88l5.18.21C695.18,1332.39,695.59,1335.65,696,1338.63Z"/><path class="cls-8" d="M1025.8,1221c-4.47,2.52-8.94,4.76-13.4,7.28l-1.37,0a24.71,24.71,0,0,1-2.34-2.8c.11-2.43.22-5.12.32-7.56l15.53.64A10.81,10.81,0,0,1,1025.8,1221Z"/><path class="cls-8" d="M731.44,1307.65l-1.36-.06-10.64-.43c-.2-1.63-.67-3.55-.87-5.17,1.18-2.12,2.63-4.22,4.08-6.32,3.51.95,6.75,1.89,10.26,2.85C732.52,1301.48,731.83,1304.69,731.44,1307.65Z"/><path class="cls-8" d="M703.53,1315.69l-2.73-.1a33.2,33.2,0,0,0-3.7-2.86c.08-2.16.18-4.32.27-6.48,3.12-2.84,6.25-6,9.37-8.81l2.73.12c0,.54,0,1.07-.06,1.35.66,4.08,1.31,7.89,2.24,11.72C708.85,1312.39,706.06,1313.91,703.53,1315.69Z"/><path class="cls-6" d="M759.51,1321.77c-2.24,1.26-4.47,2.52-6.7,3.5.43,3,.56,6.25,1,9.24l-9.26-.39c-2.24,1.26-2.06,3.44-4,5-1.39.48-2.76.7-3.87,1.19l-1.36,0c.11-3,.25-6.21.38-9.18a20.2,20.2,0,0,1,13.51-9.72,12.9,12.9,0,0,1-2.62-2.8l-6.54-.27c-5,2-5.6-3.2-4.9-6.68,3.57-.68,6.88-1.34,10.45-2,.06-1.34.12-2.69.17-4,1.92-.19,3.58-.66,5.5-.86,8-2.37,9.54,6.88,19.41,5.93,1.24,3-2.89,3.67-2.94,5-2.76.69-5.25,1.4-8,2.37C759.63,1319.07,759.57,1320.42,759.51,1321.77Z"/><path class="cls-2" d="M753.79,1334.51l-.27,6.48c-4.33-.72-8.68-1.17-13-1.89,2-1.54,1.79-3.72,4-5Z"/><path class="cls-3" d="M1271.78,1326l-7.9-.32C1266.32,1326,1264.63,1320.79,1271.78,1326Z"/><path class="cls-3" d="M776,1339.2c-5.35,4.1-14.68,5.07-22.46,1.79l.27-6.48c4.9.46,9.51,1.2,14.39,1.94C770.61,1337.35,773.3,1338.28,776,1339.2Z"/><path class="cls-6" d="M840.29,1302.9c-5.89,3.82-8.89,3.7-11.89,3.58C824.5,1295.24,835.31,1298.11,840.29,1302.9Z"/><path class="cls-6" d="M1320.66,1286.33c-1.85-1.42-3.42-2.84-5.29-4,1.75-2.63,2.47-6.93,6.77-5.13,2.43.65,4.31,1.26,6.48,1.62C1328.39,1284.22,1322.29,1280.18,1320.66,1286.33Z"/><path class="cls-4" d="M1094.06,1253.82c-2.44-.37-3.65,2.29-5.61,3.55-2.16-.62-4.33-1-6.49-1.6q-4.57,1.83-9.16,3.68l-2.61-2.82c-4.46,2.25-10.39.39-15.59.72-2.68-1.2-5.38-2.11-7.8-3,2.19.09,3.65-2.29,5.34-3.57l18.26.75c2.18.09,4.36.17,11.62,2.91C1085,1254.27,1086.54,1250.81,1094.06,1253.82Z"/></g></g><path class="cls-9" d="M420.41,839c-.57.87-1.11,1.78-1.66,2.72s-1.08,2-1.57,3.06a47.91,47.91,0,0,0-3.92,14,61.29,61.29,0,0,0-.45,7.71c0,1.31.05,2.62.13,3.94.05.69.16,1.45.24,2.18a18.88,18.88,0,0,0,.33,2.22,28.91,28.91,0,0,0,1.26,4.44,20.58,20.58,0,0,0,.88,2.2l1.09,2.13a29.2,29.2,0,0,0,6.18,7.45,33,33,0,0,0,8.28,5,37.23,37.23,0,0,0,18.92,2.38,34.4,34.4,0,0,0,9.45-2.54,30.92,30.92,0,0,0,8.52-5.33,27.19,27.19,0,0,0,9-17.86l.17-2.47c0-.82,0-1.62-.06-2.43a35.07,35.07,0,0,0-.51-4.74c-.06-.4-.12-.81-.17-1l-.14-.91-.31-2.15a21,21,0,0,0-.56-2.59,13.69,13.69,0,0,0-1.14-2.72,17.13,17.13,0,0,0-7.8-7.25,19.28,19.28,0,0,0-9.88-1.8,20.5,20.5,0,0,0-9,3.13,24.22,24.22,0,0,0-6.49,6.08,25,25,0,0,0-2.26,3.64,21,21,0,0,0-1.56,4,15.23,15.23,0,0,0,0,8.77,11,11,0,0,0,2.41,4,12,12,0,0,0,3.52,2.47,16.18,16.18,0,0,0,1.77.73c.58.2,1.16.38,1.79.53a15.48,15.48,0,0,0,3.73.45c.32,0,.63,0,1-.05a8,8,0,0,0,1.07-.14,9.74,9.74,0,0,0,2-.61,7.63,7.63,0,0,0,3.14-2.5,9.71,9.71,0,0,0,.52-1.08c.12-.39.26-.76.34-1.15s.21-.8.25-1.09.12-.6.16-.89a29.72,29.72,0,0,0,.38-3.43,20,20,0,0,0-.08-3.37,7.68,7.68,0,0,0-1.14-3.52,3.88,3.88,0,0,0-.78-.87,1.8,1.8,0,0,0-.42-.32,3.26,3.26,0,0,0-.4-.24,5.69,5.69,0,0,0-1.67-.6,6.82,6.82,0,0,0-3.1.12,6.94,6.94,0,0,0-2.44,1.24,7.22,7.22,0,0,0-1.57,1.74,8.27,8.27,0,0,0-1.27,3.34,6.37,6.37,0,0,0-.09,1.38,2.73,2.73,0,0,0,.33,1.17,1.54,1.54,0,0,0,.71.7.81.81,0,0,0,.59.06c.22-.1.1-.16-.16-.32-.48-.27-.68-1.27-.12-2.56a6.91,6.91,0,0,1,3.3-3.9c1.71-.86,4.89-.41,4.73,2a16,16,0,0,1-.33,4.56c-.15.83-.35,1.68-.59,2.52a9.1,9.1,0,0,1-.32,1,3.92,3.92,0,0,1-.41.85,3.25,3.25,0,0,1-1.41.91,4.81,4.81,0,0,1-1.73.22,10.22,10.22,0,0,1-2.25-.36,11.65,11.65,0,0,1-1.14-.37c-.4-.15-.8-.32-1.17-.5a8.86,8.86,0,0,1-2-1.25,4.88,4.88,0,0,1-1.22-1.59,7.33,7.33,0,0,1-.38-4.46,14.06,14.06,0,0,1,2.07-5,19.21,19.21,0,0,1,3.87-4.38c3-2.51,6.93-3.87,10.49-3.22a11.22,11.22,0,0,1,5,2.16,8.22,8.22,0,0,1,1.78,1.86,6.52,6.52,0,0,1,1,2.06,19.13,19.13,0,0,1,.42,3c.06.65.12,1.37.24,2.15l.17,1.74c0,.56.14,1.13.14,1.69v2.49l-.1.81-.18,1.61c-.09.53-.24,1-.35,1.55l-.17.78c-.08.25-.18.49-.27.73-.18.49-.34,1-.53,1.46l-.7,1.38a17.68,17.68,0,0,1-3.82,4.76,22,22,0,0,1-5.31,3.36,27.44,27.44,0,0,1-6.22,1.8,30.1,30.1,0,0,1-6.5.27,27.93,27.93,0,0,1-6.24-1.22,20.25,20.25,0,0,1-9.63-6.39l-.44-.53-.37-.57c-.24-.39-.5-.75-.74-1.14l-.59-1.21a4.73,4.73,0,0,1-.29-.6l-.22-.65-.46-1.26-.3-1.34a18.63,18.63,0,0,1-.4-2.71,13,13,0,0,1-.11-1.49c0-.52,0-1-.05-1.56,0-1,0-2.05,0-3.05a48.87,48.87,0,0,1,.57-5.81,37,37,0,0,1,3.06-10.05,45.14,45.14,0,0,1,2.42-4.28,17.37,17.37,0,0,1,2.71-3.87c16.12-14.5,28-12.27,38-14,40.51-7,79.26-21.39,122.23-17.87,17.32,1.42,35.61-.86,52.77-4.12,27.81-5.27,52.11-2.15,74.95,13.21,14.77,9.93,63.78,41.16,78.52,51.73,34.61,24.82,24.09,55.39,30.16,132.35l41.68-13.49c-13.06-80.33,7.61-117.89,10.45-140.16,2.4-18.79,31-50.38,71.32-55.34,36.77-4.53,74.67-3.07,109.27-17.46l.75.22c9.71-3,19.76-8.39,29.33-10.27a60.91,60.91,0,0,1,8.35,6.36,45.25,45.25,0,0,1,7.42,8.68,39.61,39.61,0,0,1,5.3,12.56,88.18,88.18,0,0,1,2,17.26,89.88,89.88,0,0,1-.91,19.24,38.41,38.41,0,0,1-2.7,8.88,36.44,36.44,0,0,1-5,8.06,45.62,45.62,0,0,1-16.06,12.33,55.2,55.2,0,0,1-21,4.88,79.53,79.53,0,0,1-22.5-2.4,77.7,77.7,0,0,1-10.71-3.38,28.65,28.65,0,0,1-4.42-2.29,14.66,14.66,0,0,1-1.84-1.37l-.83-.72c-.27-.26-.5-.55-.76-.81a19.09,19.09,0,0,1-4.26-8,22.37,22.37,0,0,1-.39-9.24,19.28,19.28,0,0,1,3.52-8.09,21.24,21.24,0,0,1,6.82-5.65,23.76,23.76,0,0,1,16.91-2,17.8,17.8,0,0,1,6.94,3.48,10,10,0,0,1,3.41,5.68,25.09,25.09,0,0,1,.54,3.71,29.11,29.11,0,0,1,.1,3.67,8.89,8.89,0,0,1-.45,2.65,4,4,0,0,1-1.37,1.89,5,5,0,0,1-1.45.7l-.78.21-1.09.2a42.79,42.79,0,0,1-4.25.55,13.64,13.64,0,0,1-6.62-.89,7.48,7.48,0,0,1-3.41-3.27,6.53,6.53,0,0,1-.83-3.24,11.9,11.9,0,0,1,.26-1.78c0-.34-.1-.43-.44-.16a3.18,3.18,0,0,0-.9,1.18,5.59,5.59,0,0,0-.56,2.61,8.53,8.53,0,0,0,1,3.73,9.78,9.78,0,0,0,3.35,3.76,16.61,16.61,0,0,0,8.24,2.3,44.87,44.87,0,0,0,4.76-.09l1.27-.1c.49-.06,1-.13,1.53-.23a9.78,9.78,0,0,0,3-1.12,8.69,8.69,0,0,0,3.08-3.2,12,12,0,0,0,.94-2.16c.12-.38.24-.76.33-1.18s.15-.7.22-1.06a28.6,28.6,0,0,0,.38-4.17,36.15,36.15,0,0,0-.1-4.25,20.88,20.88,0,0,0-.93-4.67,16.08,16.08,0,0,0-2.42-4.64,22.29,22.29,0,0,0-8.09-6.48,31.28,31.28,0,0,0-21.25-2,32.12,32.12,0,0,0-10.59,4.87,29.14,29.14,0,0,0-8.43,9.13,30.61,30.61,0,0,0-3.8,12.25,34.64,34.64,0,0,0,0,6.52,33.59,33.59,0,0,0,1.4,6.49,29.32,29.32,0,0,0,7.06,11.77,36.12,36.12,0,0,0,11.24,7.46,94.39,94.39,0,0,0,11.55,4.09,98.51,98.51,0,0,0,12,2.66,80.32,80.32,0,0,0,25,.15c16.82-2.57,32.75-12,41.83-26.45a50.13,50.13,0,0,0,5.3-11.4,61.91,61.91,0,0,0,2.44-11.55,93.45,93.45,0,0,0,.63-10.87c0-3.5-.09-6.77-.26-10.06a84.78,84.78,0,0,0-3-19.44c-.47-1.55-1-3.08-1.57-4.57s-1.3-2.91-1.94-4.33a52.3,52.3,0,0,0-4.71-7.55q-1.45-1.93-3-3.64c23,3.45,86.81,77,137.5,94.78,15.26,5.36,53.87,16.84,78.44,3.17a41,41,0,0,0,8.83-6.47,33.5,33.5,0,0,0,6.91-9.63,30.62,30.62,0,0,0,2.89-12.17,33.83,33.83,0,0,0-2.1-12.45,33.2,33.2,0,0,0-6.68-11,30.93,30.93,0,0,0-10.84-7.46,44.29,44.29,0,0,0-12.17-2.94,45.5,45.5,0,0,0-12.42.23,30.34,30.34,0,0,0-6.25,1.76l-1.5.63-1.44.74a31.56,31.56,0,0,0-2.75,1.63,34.31,34.31,0,0,0-8.84,8.73,34.8,34.8,0,0,0-5,10.91,28.7,28.7,0,0,0-.74,11.79,18.28,18.28,0,0,0,2,5.9,14.57,14.57,0,0,0,4.22,4.73,21.64,21.64,0,0,0,10.34,3.6c6.58.74,13.12-.36,18.18-3.41a19.51,19.51,0,0,0,9.21-12.33,13.81,13.81,0,0,0-.07-6.44,9.43,9.43,0,0,0-2.77-4.7,7.67,7.67,0,0,0-3.75-1.83,6,6,0,0,0-2.79.15,2.67,2.67,0,0,0-1.18.66c-.14.17,0,.24.25.23a7,7,0,0,1,3.34.38,6.62,6.62,0,0,1,2.4,1.62,7.06,7.06,0,0,1,1.65,3.16,12.1,12.1,0,0,1-1.85,9,17,17,0,0,1-9.39,7,26.94,26.94,0,0,1-14.07.18,13.35,13.35,0,0,1-6.09-3.1,9.32,9.32,0,0,1-2.49-6,21.61,21.61,0,0,1,.88-7.82,25.93,25.93,0,0,1,3.54-7.51,24.25,24.25,0,0,1,13.14-9.84,26.36,26.36,0,0,1,8.48-.89,45.65,45.65,0,0,1,9,1.3,27.33,27.33,0,0,1,7.83,3.26,19.87,19.87,0,0,1,5.63,5.49,23.24,23.24,0,0,1,4,14.94,19.41,19.41,0,0,1-1.92,7,22.81,22.81,0,0,1-4.25,5.88,31.76,31.76,0,0,1-12.31,7.42,39.63,39.63,0,0,1-6.66,1.68,48.31,48.31,0,0,1-6.5.59c-8.54.19-60,3.58-124.3-58.42-2.09-2,57.13-13.09,61.91-13.15,2,0,4.06,0,6.19,0a32.6,32.6,0,0,1,5.88.38,8.08,8.08,0,0,1,2.24.8,12,12,0,0,1,2.15,1.53,19.58,19.58,0,0,1,3.78,4.64,21.76,21.76,0,0,1,2.92,12.17,24,24,0,0,1-4.35,12.26c-2.53,3.61-6,6.72-9.83,8.07a16.6,16.6,0,0,1-11.84-.48,15.19,15.19,0,0,1-8-7.56,13,13,0,0,1-1.23-4.94A10.58,10.58,0,0,1,1235,810a9.53,9.53,0,0,1,5.7-5.4,8.9,8.9,0,0,1,6,.39,9.15,9.15,0,0,1,3,2.13c.52.57.77.75.7.37a5,5,0,0,0-1.15-2.1,9.1,9.1,0,0,0-4.29-2.72,10.22,10.22,0,0,0-3.51-.43,9.91,9.91,0,0,0-4,1.1,12.83,12.83,0,0,0-6.21,7.51,15.64,15.64,0,0,0,1,11.51,19.66,19.66,0,0,0,9.21,9.11,21.1,21.1,0,0,0,21-1.21,29.63,29.63,0,0,0,5.69-4.79,31.06,31.06,0,0,0,7.24-13.13,28.29,28.29,0,0,0,.93-7.63,29.22,29.22,0,0,0-1.16-7.57,27,27,0,0,0-8.05-12.74,18.07,18.07,0,0,0-3.33-2.27,15.39,15.39,0,0,0-3.88-1.41,35.24,35.24,0,0,0-6.83-.62c-8.11-.21-44.35,4.68-45.1,4.88-41.75,11.53-17.22,6.44-75.63-35.64-.48-.35-.93-1.51-2.16-3.67,18.85-9.11,37.6-18.53,56.77-27.28,10.06-4.6,20.82-11.25,31.33-11.34,27.57-.24,44.2-4.22,71.8-2.69,17.83,1,48.88,1.63,64.47,9.69a27.19,27.19,0,0,1,2.51,1.75,20.39,20.39,0,0,1,3.46,3.43,21.11,21.11,0,0,1,4.36,10.12,17.51,17.51,0,0,1-.18,5.95,15.52,15.52,0,0,1-2.41,5.64,22.19,22.19,0,0,1-4.77,4.88,37.1,37.1,0,0,1-6.56,3.85,83.86,83.86,0,0,1-15.88,5.12,103.81,103.81,0,0,1-17,2.33c-5.75.25-11.46.34-16-1.36a19.34,19.34,0,0,1-10.42-9.5,18.39,18.39,0,0,1-1.91-6.55,10.9,10.9,0,0,1,1-5.9,6.55,6.55,0,0,1,4-3.21,17.38,17.38,0,0,1,5.71-.68,17.85,17.85,0,0,1,9.57,3,14.49,14.49,0,0,1,4.79,5.76,15.65,15.65,0,0,1,1.27,4.35c.13.93.25,1.27.44.85a7,7,0,0,0,.35-2.83,13.48,13.48,0,0,0-1.64-5.8,16.23,16.23,0,0,0-6.23-6.4,22.12,22.12,0,0,0-11-2.88,15.88,15.88,0,0,0-6.76,1.31,10.92,10.92,0,0,0-5.47,5.75,17.12,17.12,0,0,0-1.2,7.87,24,24,0,0,0,2,7.84,25.38,25.38,0,0,0,11.52,12.39,28,28,0,0,0,8.48,2.7,60.22,60.22,0,0,0,8.47.67,104.67,104.67,0,0,0,33.15-4.62,49.42,49.42,0,0,0,15.42-7.53,29.47,29.47,0,0,0,6.24-6.37,24.57,24.57,0,0,0,3.72-8.15,27.3,27.3,0,0,0-1.15-16.16c-1-2.56-7.17-10.8-8.1-11.59a31.75,31.75,0,0,0-10-5.82c-3.19-1.16-16.73-4.9-19.1-5.22-75.88-10.06-97.12-6.48-97.27-7.16,3-1.31,9.11-4.32,17.47-8.6a118.84,118.84,0,0,0,15.65-9,41.34,41.34,0,0,0,8.64-8.11c.62-.73,1.16-1.59,1.73-2.42l.75-.45-.61.24.06-.1a30.09,30.09,0,0,0,1.65-3.08,26.83,26.83,0,0,0,2.19-7,27.72,27.72,0,0,0,.18-7.5,31.33,31.33,0,0,0-1.75-7.25,35.55,35.55,0,0,0-8-12.42c-7.28-7.32-17-10.83-26.39-12.34a95.17,95.17,0,0,0-14.13-1.12,102.33,102.33,0,0,0-14.26.78c-9.52,1.22-19.22,3.94-27.81,9a63.85,63.85,0,0,0-6.17,4.2,39,39,0,0,0-5.62,5.32,27.76,27.76,0,0,0-4.36,6.8,39.46,39.46,0,0,0-2.4,7.11,61.11,61.11,0,0,0-2,13.91,34,34,0,0,0,.7,7.28,27.22,27.22,0,0,0,2.49,7,22.65,22.65,0,0,0,4.47,6,19.24,19.24,0,0,0,6.33,4.05,21.43,21.43,0,0,0,13.74.39,22.54,22.54,0,0,0,5.89-2.76,23.14,23.14,0,0,0,4.63-4.08,27.26,27.26,0,0,0,5.4-9.77,28.8,28.8,0,0,0,1.29-9.89,16.92,16.92,0,0,0-2.78-8.83,11,11,0,0,0-3.2-3.08,9.86,9.86,0,0,0-1.93-1,10.14,10.14,0,0,0-2-.45,11.51,11.51,0,0,0-10.39,4.18,9,9,0,0,0-1,1.62,6.08,6.08,0,0,0-.49,1.38,3.85,3.85,0,0,0-.14,1,2.16,2.16,0,0,0,0,.59c.06.25.2.21.4-.1a11.32,11.32,0,0,1,2.46-3.3,10.24,10.24,0,0,1,3.09-1.8,9.53,9.53,0,0,1,4.35-.52,7.71,7.71,0,0,1,2.28.65,7.12,7.12,0,0,1,2,1.51,10,10,0,0,1,2.22,5.24,19,19,0,0,1-.39,6.86,24.27,24.27,0,0,1-2.78,7.1,19.63,19.63,0,0,1-5.29,5.87,15.28,15.28,0,0,1-7.46,2.8,12.1,12.1,0,0,1-13-7.71c-2.46-5.42-1.8-12.26.16-19.41a29.83,29.83,0,0,1,3.84-9.34,26.35,26.35,0,0,1,7.34-6.72,54.94,54.94,0,0,1,20.54-8,91.13,91.13,0,0,1,22.76-1c7.57.53,14.72,1.93,20.49,4.83a31,31,0,0,1,4,2.41,22.58,22.58,0,0,1,3.29,2.86,21.84,21.84,0,0,1,2.66,3.38c.42.58.71,1.21,1.07,1.8s.62,1.23.84,1.86a16.27,16.27,0,0,1,1.21,7.24,14.22,14.22,0,0,1-2.22,6.3c-2.51,4-7,7.25-11.41,10-2.25,1.4-4.52,2.67-6.76,3.94l-6.36,3.63c-4,2.31-7.41,4.39-10.21,6.18-1,.66-2,1.32-2.82,2-26.74,10-52.74,19.82-78.45,30.11-22.39,9-42.41,23.26-65.55,29.66-43.53,12-87.52,24.25-135,19.58-20.3-2-26.73-8.87-17.52-24.68,8-13.7,23.8-14.49,38.08-17.61,35.07-7.68,65.64-22.12,81.57-50.61,15.45-27.62,36.91-47.17,71.39-55.74,26.52-6.6,52.43-13.29,81.22-9.08,25.79,3.77,88.77,12,91.15,12.26s5.27.59,8.5.69a44.86,44.86,0,0,0,10.74-.87,28.46,28.46,0,0,0,11.57-5.33,21.82,21.82,0,0,0,4.8-5.17,18.86,18.86,0,0,0,2.83-6.89,32.23,32.23,0,0,0,.42-7c0-1.14-.07-2.15-.15-3.37a13,13,0,0,0-.89-4.11,9.53,9.53,0,0,0-2.84-3.67,20.12,20.12,0,0,0-3.26-2,42.76,42.76,0,0,0-6.44-2.8,17,17,0,0,0-3.79-.75,12.34,12.34,0,0,0-4.08.39,12.73,12.73,0,0,0-6.46,4.39,17.59,17.59,0,0,0-3.23,6.36,35.38,35.38,0,0,0-1.15,6.35q-.13,1.51-.27,3a9.9,9.9,0,0,0,.26,3.59,6,6,0,0,0,1,1.86,7,7,0,0,0,1.38,1.34,11.39,11.39,0,0,0,2.88,1.47,15,15,0,0,0,5.73,1,10.78,10.78,0,0,0,5.33-1.55,8.45,8.45,0,0,0,4-8.27,5.83,5.83,0,0,0-1.92-3.45,6.5,6.5,0,0,0-2.78-1.43,4.69,4.69,0,0,0-3.86.6c-.62.5-.69.75-.36.65a5.63,5.63,0,0,1,1.95-.45,5.25,5.25,0,0,1,3.56,1.41,4.33,4.33,0,0,1,1.29,2.06,4.93,4.93,0,0,1-.1,2.76,6.65,6.65,0,0,1-4.7,4.29,11.13,11.13,0,0,1-7.77-1.28,5.11,5.11,0,0,1-1.45-1.11,2.15,2.15,0,0,1-.51-1.29,9.67,9.67,0,0,1,.14-2.1c.14-.86.27-1.72.4-2.59.56-3.42,1.4-6.85,3.31-9.32a9.19,9.19,0,0,1,3.44-2.85,6.74,6.74,0,0,1,4.15-.38,18.23,18.23,0,0,1,4.78,1.8c.82.42,1.68.89,2.51,1.36a14.9,14.9,0,0,1,2.09,1.35,3.65,3.65,0,0,1,1.54,3c.08.75.08,1.69.09,2.68s0,1.91,0,2.81A19.3,19.3,0,0,1,1331,598a12.62,12.62,0,0,1-2,4,18.75,18.75,0,0,1-7.22,5.6,23.39,23.39,0,0,1-4.24,1.46,31.84,31.84,0,0,1-4.37.72,57.74,57.74,0,0,1-8.38.13c-2.48-.12-4.79-.31-6.89-.46-173.7-21.33-31.8-40.08-27.84-41.19a73.41,73.41,0,0,0,13.32-5.1,55,55,0,0,0,14.36-10.44,44.44,44.44,0,0,0,6.19-8,38.38,38.38,0,0,0,4.25-10,28.15,28.15,0,0,0,.68-11.83,22.61,22.61,0,0,0-2-6.12,24.37,24.37,0,0,0-3.51-5.26,34.56,34.56,0,0,0-9.39-7.4,49.12,49.12,0,0,0-10.71-4.35,40.84,40.84,0,0,0-11.71-1.53,32.55,32.55,0,0,0-11.84,2.41,29,29,0,0,0-10.05,6.77,24.58,24.58,0,0,0-3.68,4.92,23.42,23.42,0,0,0-2.17,17.61,20.5,20.5,0,0,0,2.45,5.44,19.15,19.15,0,0,0,3.86,4.37,25.15,25.15,0,0,0,9.54,4.89,21.35,21.35,0,0,0,10.26.25,16.72,16.72,0,0,0,4.73-1.91,15.5,15.5,0,0,0,3.75-3.19,14.51,14.51,0,0,0,3.55-8.45,11.18,11.18,0,0,0-.6-4.42,11,11,0,0,0-2.15-3.64,11.49,11.49,0,0,0-3-2.41,10.56,10.56,0,0,0-3.35-1.27,9,9,0,0,0-6.34.94,8.7,8.7,0,0,0-3.45,3.84,8.07,8.07,0,0,0-.39,6.25c.5,1.17.87,1.39.85.84a10.79,10.79,0,0,1,.08-3.23,8.23,8.23,0,0,1,1-2.61,7.1,7.1,0,0,1,2.37-2.42,5.92,5.92,0,0,1,3.72-.79,7.81,7.81,0,0,1,4.07,1.75,7.6,7.6,0,0,1,2.64,4,8.2,8.2,0,0,1-.57,5.13,11,11,0,0,1-3.73,4.4,11.23,11.23,0,0,1-5.84,1.85,16.53,16.53,0,0,1-6.69-1.16,18.64,18.64,0,0,1-6-3.79,12.37,12.37,0,0,1-3.47-5.86,15.7,15.7,0,0,1,1-10.66,15,15,0,0,1,2-3.1,19.24,19.24,0,0,1,5.94-4.83,24.5,24.5,0,0,1,15.64-2.33,36,36,0,0,1,8.09,2.28,37.44,37.44,0,0,1,7.34,3.91,21.3,21.3,0,0,1,5.36,5.2,12.46,12.46,0,0,1,2.25,6c.44,4.36-1.17,9.38-3.58,13.43a37.78,37.78,0,0,1-9.4,10.38,52.64,52.64,0,0,1-11.16,6.53c-1.93.84-3.82,1.56-5.65,2.21-23.52,5.44-45.14,10.34-66.4,16.18-28,7.68-55.31,17-84.83,26.22,3.56-29.15,13.27-53.19,29.59-74.33,3.49-4.22,7.53-8.83,12.15-13.64,3.81-3.94,7.93-7.84,12.67-10.59a32.64,32.64,0,0,1,3.66-1.8,22.06,22.06,0,0,1,3.8-1.18,20.55,20.55,0,0,1,7.92-.24,13.94,13.94,0,0,1,6.75,3.16,18,18,0,0,1,4.58,6.72,25.3,25.3,0,0,1,1.36,4.27,32.13,32.13,0,0,1,.76,4.49,33.52,33.52,0,0,1-.4,9.21,36.36,36.36,0,0,1-7.53,16.63,33.13,33.13,0,0,1-6.45,6.14,24,24,0,0,1-7.53,3.64,16.57,16.57,0,0,1-7.63.47,10.29,10.29,0,0,1-3.24-1.18,10,10,0,0,1-2.62-2.1,19.75,19.75,0,0,1-3.5-6.23,13.37,13.37,0,0,1-.86-6.31,11.18,11.18,0,0,1,2.22-5.26,11.44,11.44,0,0,1,4-3.34,12,12,0,0,1,8.32-.7,15.22,15.22,0,0,1,4.72,2.24c.89.63,1.27.8,1.07.29a7.63,7.63,0,0,0-2.15-2.54,13.84,13.84,0,0,0-11.42-2.72,13.75,13.75,0,0,0-5.3,2.43,15.36,15.36,0,0,0-4.35,5,15.1,15.1,0,0,0-1.33,3.42,14.54,14.54,0,0,0-.44,3.85,22.5,22.5,0,0,0,1.61,7.68,20.2,20.2,0,0,0,4.53,7.32,16.74,16.74,0,0,0,8.48,4.41,23.66,23.66,0,0,0,9.63-.26,30.3,30.3,0,0,0,9.06-3.63,41.07,41.07,0,0,0,7.74-6.14,45.54,45.54,0,0,0,6.17-8,48.13,48.13,0,0,0,4.23-9.35,42.76,42.76,0,0,0,1.4-20.87,34.06,34.06,0,0,0-3.54-10.3c-1.78-3.3-5.7-12.51-4.49-15.28a84.37,84.37,0,0,0,5.2-19.66,103.11,103.11,0,0,0,1.15-17.33,74.35,74.35,0,0,0-3.29-21.36,52,52,0,0,0-5.18-11.36,45.13,45.13,0,0,0-8.6-10.25,38.2,38.2,0,0,0-12.29-7.31,32.13,32.13,0,0,0-7.35-1.72,34.93,34.93,0,0,0-7.58,0,37.31,37.31,0,0,0-25.67,14.71,38.12,38.12,0,0,0-6.26,13.7,58.93,58.93,0,0,0-1.59,14.14,47.62,47.62,0,0,0,2,14.24,31.94,31.94,0,0,0,3.1,6.89c.33.54.69,1.07,1,1.6l1.22,1.55a16.08,16.08,0,0,0,1.31,1.43,13.37,13.37,0,0,0,1.39,1.33,27.91,27.91,0,0,0,13.21,6.36,29,29,0,0,0,7.13.45,28,28,0,0,0,6.92-1.38,23.24,23.24,0,0,0,11.16-8.1,18.73,18.73,0,0,0,2.85-6.27,37.31,37.31,0,0,0,.92-5.87,34.91,34.91,0,0,0-.45-11.29,18.74,18.74,0,0,0-2.09-5.36,15.94,15.94,0,0,0-3.68-4.32c-5.76-4.59-13.07-4.83-18.06-2.22a15.33,15.33,0,0,0-5.6,5.06,16.43,16.43,0,0,0-2.33,5.54,14.12,14.12,0,0,0-.26,4.56,11.18,11.18,0,0,0,.7,3c.62,1.4,1,1.72,1,1a28.29,28.29,0,0,1,0-4,14.93,14.93,0,0,1,2.77-7.34,11.62,11.62,0,0,1,9.13-4.95c.49,0,1,0,1.52,0s1,.12,1.54.26a12.2,12.2,0,0,1,3,1.08,11.5,11.5,0,0,1,2.72,1.86,10.05,10.05,0,0,1,2.06,2.58c2.3,4,2,9.71.75,15.71a20.09,20.09,0,0,1-1.19,4,10.63,10.63,0,0,1-2.09,3.08,15.85,15.85,0,0,1-7.07,4.06,19.56,19.56,0,0,1-16.77-3.49,19,19,0,0,1-1.64-1.46l-.71-.81-.36-.41-.3-.44a16.81,16.81,0,0,1-2.15-3.9,29.39,29.39,0,0,1-1.87-9.57,55.4,55.4,0,0,1,.61-10.57,36.5,36.5,0,0,1,2.81-9.72c.34-.73.71-1.45,1.11-2.14s.85-1.29,1.26-1.95a24.81,24.81,0,0,1,3.11-3.46,25.13,25.13,0,0,1,7.88-5,24.8,24.8,0,0,1,8.87-1.79,21.16,21.16,0,0,1,8.38,1.69,29.36,29.36,0,0,1,12.92,11.51,45.32,45.32,0,0,1,5.89,16.12,85,85,0,0,1,1.11,16.2,131.12,131.12,0,0,1-3,24.51c-.84,4-3.28,9.31-4.39,9.17a31,31,0,0,0-10.83.61c-7,1.66-12.69,5.36-17.35,9.2a121.15,121.15,0,0,0-11.86,11.75c-3.47,3.83-6.58,7.56-9.31,11.08a141.45,141.45,0,0,0-11.94,17.82,30.91,30.91,0,0,0-1.71,3.61c-11.76,14.15-19.72,30.13-25.71,50-2.67,8.87-7.46,14.82-17.52,20.13-12.76,6.74-26.13,16.26-32.62,27.41-17.9,30.73-48.76,45.47-83.69,56.38-4.4,1.37-10.27-.71-15.46-1.19,1.39-4.5,1.19-10.28,4.47-13.24,7.89-7.13,17.65-12.7,26.23-19.31,19-14.68,31.84-29.86,24.49-55.05-9.38-32.14,0-64.71,5.36-97.08,3-18.21,22.07-42.47,52-60,19.76-11.58,29.56,4,30.5,7.23a63,63,0,0,1,1.22,30.32,37.79,37.79,0,0,1-3,9.19,21.25,21.25,0,0,1-2.34,3.8,15,15,0,0,1-3,3,13,13,0,0,1-7.27,2.76,9.55,9.55,0,0,1-3.53-.57,11.38,11.38,0,0,1-3.2-1.86,16.12,16.12,0,0,1-4.52-6.21,29,29,0,0,1-2-7.64,45.5,45.5,0,0,1-.45-7.49,9,9,0,0,1,.6-2.87,5.91,5.91,0,0,1,1.49-2,8.09,8.09,0,0,1,4.72-1.86,10.33,10.33,0,0,1,7.9,3.26,22,22,0,0,1,3.39,4.47c.6,1,.9,1.33.91.75a9.54,9.54,0,0,0-.9-3.39,14.79,14.79,0,0,0-4.54-5.93,12.26,12.26,0,0,0-2.15-1.34A10.44,10.44,0,0,0,1073,473a12.09,12.09,0,0,0-6.29.37,10.13,10.13,0,0,0-5.75,4.76,17,17,0,0,0-1.59,7.66,54,54,0,0,0,.33,7.82,29.46,29.46,0,0,0,2.26,8.49,21.3,21.3,0,0,0,5.89,7.82,17.24,17.24,0,0,0,4.65,2.72,15.79,15.79,0,0,0,5.54,1.09,20,20,0,0,0,10.7-3,22.52,22.52,0,0,0,4.42-3.51,28.39,28.39,0,0,0,3.47-4.36,39.88,39.88,0,0,0,4.45-9.85,69.1,69.1,0,0,0,2.29-10.28,71.09,71.09,0,0,0-.15-21.3,60.57,60.57,0,0,0-2.6-10.59,32.06,32.06,0,0,0-5.75-10.25,27.07,27.07,0,0,0-4.42-4.15,29,29,0,0,0-5-3.07,32.21,32.21,0,0,0-5.37-2.05,34.32,34.32,0,0,0-5.49-1.13,39.41,39.41,0,0,0-10.81.14,51.13,51.13,0,0,0-9.8,2.48,82.9,82.9,0,0,0-16.13,8.1c-4.73,3-8.53,6.73-12.61,9.32-44.75,28.43-39.89,77.7-41.44,77.77l-29.32-75.24c0-.45,0-.92-.1-1.44-.17-1.36-.77-4.47-1.69-8.89a49.37,49.37,0,0,0-2.17-7.88,22.32,22.32,0,0,0-2.4-4.6,17.79,17.79,0,0,0-4.09-4.18A19.92,19.92,0,0,0,932.28,422a21,21,0,0,0-12.44,4.18,25.08,25.08,0,0,0-8.26,10.52,30.08,30.08,0,0,0-2.16,13.09,34.17,34.17,0,0,0,1,6.45,13.78,13.78,0,0,0,3.22,6.32,14.21,14.21,0,0,0,5.94,3.38,20.34,20.34,0,0,0,6.18.94c.51,0,1,0,1.52-.06a12.92,12.92,0,0,0,1.6-.2,6.8,6.8,0,0,0,1-.28,5,5,0,0,0,.95-.48,4.75,4.75,0,0,0,1.43-1.53,13.78,13.78,0,0,0,.7-1.35l.54-1.21c.36-.81.7-1.63,1-2.45a21,21,0,0,0,1.24-5.06,12.7,12.7,0,0,0-.41-5,9,9,0,0,0-5.64-6.34,6.63,6.63,0,0,0-3.58-.07,6.83,6.83,0,0,0-2.58,1.25,4.74,4.74,0,0,0-1.89,3.08c0,.75.07,1,.22.66a6.34,6.34,0,0,1,.91-1.63,5.41,5.41,0,0,1,3.13-1.8,5.73,5.73,0,0,1,2.37,0,4.91,4.91,0,0,1,2.31,1.26,8.26,8.26,0,0,1,2.45,5.77,16.14,16.14,0,0,1-2,7.54c-.31.66-.66,1.32-1,2a7.23,7.23,0,0,1-1,1.56,1.06,1.06,0,0,1-.43.26l-.24.06-.41.05a15.81,15.81,0,0,1-2.18,0,17.06,17.06,0,0,1-4.44-.88,11.81,11.81,0,0,1-3.85-2.08,7,7,0,0,1-2-3.45,24.18,24.18,0,0,1-.82-4.85,26.8,26.8,0,0,1,1-9.95,20.46,20.46,0,0,1,4.8-8.3,17.41,17.41,0,0,1,7.67-4.75,14.6,14.6,0,0,1,8.24.1,12.67,12.67,0,0,1,6.17,4.06,19.3,19.3,0,0,1,3.12,6.35c.16.53.31,1.06.46,1.59.5,9.23.73,17.08,3.58,24.13a426.3,426.3,0,0,1,31.23,148c.35,11.3-3.44,19.38-13.26,25.65-20.79,13.26-41.89,26.16-63.33,39.51-14.25-19.64-11.44-42.31-1.76-65.49,5-11.87,15.09-36.39,15.35-36.91.47-.86,1.49-4.87,1.81-5.9l1.92-4.9c.23-.49.48-1,.75-1.54,1.12-2.22,2.59-4.77,4.2-7.8s3.24-6.38,4.81-10,3.08-7.64,4.45-11.84c.69-2.11,1.33-4.24,1.94-6.49a52.91,52.91,0,0,0,1.43-7.13,30.18,30.18,0,0,0,0-7.78,18.55,18.55,0,0,0-2.82-7.93,15.26,15.26,0,0,0-6.69-5.69,17.62,17.62,0,0,0-8.38-1.31,20.11,20.11,0,0,0-7.85,2.35,18.44,18.44,0,0,0-6,5.35,22,22,0,0,0-3.37,6.84A27.31,27.31,0,0,0,903,519a29.56,29.56,0,0,0,.64,6.78l.19.81.1.4.12.47a6,6,0,0,0,1,2.11,4.45,4.45,0,0,0,1.81,1.35,6.84,6.84,0,0,0,1.08.36l.83.19a26.67,26.67,0,0,0,6,.71,10.24,10.24,0,0,0,5.88-1.73,8.79,8.79,0,0,0,3.19-4.59,20.45,20.45,0,0,0,.77-4.42,23.25,23.25,0,0,0,.07-3.81,5.82,5.82,0,0,0-1.26-3.26,3.55,3.55,0,0,0-4.26-1,1.42,1.42,0,0,0-.63.66c0,.14,0,.15.21.07a2.48,2.48,0,0,1,2-.13,3.2,3.2,0,0,1,1.45,1,3.92,3.92,0,0,1,.68,2.12,12.52,12.52,0,0,1-.26,2.92c-.19,1.1-.4,2.26-.72,3.42a9.32,9.32,0,0,1-1.52,3.23,5.35,5.35,0,0,1-2.94,1.87,10.58,10.58,0,0,1-4.17,0,23.39,23.39,0,0,1-2.32-.48l-1.21-.33-.61-.17a2.23,2.23,0,0,1-.31-.12,1.25,1.25,0,0,1-.79-.91l-.06-.31-.1-.61c-.07-.42-.15-.84-.19-1.28a25.6,25.6,0,0,1-.11-5.26,20.28,20.28,0,0,1,3.45-10,14.09,14.09,0,0,1,3.71-3.64,13.64,13.64,0,0,1,4.85-2c3.46-.68,7.17,0,9.51,2.07s3.53,5.41,3.58,9.06a37.71,37.71,0,0,1-1.86,11.21c-1.15,3.81-2.41,7.48-3.74,11a171.16,171.16,0,0,1-8.37,18.3c-1.38,2.65-17,36.07-23.62,48.09-8-13.35-20.16-25.29-20.66-25.83a89.25,89.25,0,0,1-6.28-7.71,67.1,67.1,0,0,1-6-10.24,68.24,68.24,0,0,1-4.47-12.77A65.92,65.92,0,0,1,855.88,532c0-5.07.28-10.36,2.45-13.92a11.89,11.89,0,0,1,4.6-4.25,16.31,16.31,0,0,1,6.54-1.76,17.7,17.7,0,0,1,6.8,1,20.26,20.26,0,0,1,6,3.58,29,29,0,0,1,7.8,11.68c1.59,4.38,2.56,9,1.8,12.73a8.89,8.89,0,0,1-2.38,4.67,7,7,0,0,1-4.1,2.17,5.76,5.76,0,0,1-4-1.11,10.31,10.31,0,0,1-2.72-3.23,22.83,22.83,0,0,1-2.4-6.81c-.29-1.85.13-3.18.62-3.6a4.45,4.45,0,0,1,.58-.45c.1-.09.08-.17-.13-.2a1.42,1.42,0,0,0-.93.19,2.9,2.9,0,0,0-1.16,1.37,6.78,6.78,0,0,0-.53,2.47,17.82,17.82,0,0,0,.26,3.15,18.19,18.19,0,0,0,3,7.73,9.62,9.62,0,0,0,4.27,3.39,8.81,8.81,0,0,0,6.22,0,11.93,11.93,0,0,0,5.35-3.89,14.38,14.38,0,0,0,2.75-6.44,24.14,24.14,0,0,0,.07-7.05,40.45,40.45,0,0,0-1.52-7,34.58,34.58,0,0,0-7.54-13.28,27.09,27.09,0,0,0-6.49-5.12,22.84,22.84,0,0,0-8.23-2.72,24.06,24.06,0,0,0-8.77.46,20.7,20.7,0,0,0-8.21,3.95,19.12,19.12,0,0,0-5.58,7.52,31.23,31.23,0,0,0-2,8.35,77.29,77.29,0,0,0-.4,7.85,72.13,72.13,0,0,0,.48,7.68,69.23,69.23,0,0,0,3.19,14.36c3,9,8.4,16,12.36,22.19,28.52,44.36,15.7,45.6,16.22,61.71.33,10.13-3.19,21.54,1.06,30.19,18.8,38.23,7.4,72.66-13.94,106.58-7.38,11.74-11.62,12.25-20.17,1.72-18.53-22.84-29.8-47.76-30.55-76-.68-25.78.17-51.82-4-77.23-3-18.56,2.4-33.74,10.81-49.78,11.53-22,23.4-43.61,22.52-69.17-2-59,13.08-78.25,17.93-82.76a26.93,26.93,0,0,1,8.53-5.46,18,18,0,0,1,10.33-1.08,16.33,16.33,0,0,1,9.05,5.83,26.35,26.35,0,0,1,5,10.68,49.3,49.3,0,0,1,1,6.11c.1,1,.2,2.1.24,3.06a10.2,10.2,0,0,1-.15,2.55,5.3,5.3,0,0,1-.92,2,15.64,15.64,0,0,1-1.82,2c-1.48,1.4-2.93,2.77-4.38,3.91a17.29,17.29,0,0,1-4.48,2.66,10,10,0,0,1-4.58.6,6.55,6.55,0,0,1-3.73-1.59,9.92,9.92,0,0,1-2.2-3.49c-1.17-2.78-2-5.28-1.91-7.39a6.74,6.74,0,0,1,.23-1.48,4.64,4.64,0,0,1,.54-1.2,5.74,5.74,0,0,1,1.66-1.67,4,4,0,0,1,2.94-.66c.63.14.9.19.68-.07a2.8,2.8,0,0,0-2-.8,5.72,5.72,0,0,0-4.18,1.75A6.41,6.41,0,0,0,872.1,442a10,10,0,0,0-.34,3.63,19.5,19.5,0,0,0,.73,3.9,32,32,0,0,0,1.39,4.1,9.43,9.43,0,0,0,3.26,4.07,10.83,10.83,0,0,0,5.31,1.79,13.7,13.7,0,0,0,5.74-.8,22,22,0,0,0,5.14-2.74c1.59-1.11,3-2.34,4.48-3.56a15.17,15.17,0,0,0,4.29-5.08,10.82,10.82,0,0,0,.9-3.6,23.72,23.72,0,0,0,0-3.24,59.38,59.38,0,0,0-.5-6.17A35.68,35.68,0,0,0,898.64,422a24.92,24.92,0,0,0-9.34-9.7,20.21,20.21,0,0,0-6.52-2.33,22.88,22.88,0,0,0-6.7-.15A29,29,0,0,0,864.47,414a39.23,39.23,0,0,0-8.37,7.17,69.18,69.18,0,0,0-5.72,7.42c-1.58,2.37-2.92,4.45-4.1,6.53s-4.54,14.35-5.65,15.58c-1.83-1.3-5.53-5.65-5.93-6.79a24.49,24.49,0,0,0-1.33-3.25c-.33-.73-.72-1.55-1.21-2.43s-1-1.85-1.64-2.85A60.13,60.13,0,0,0,819,421.79a59.12,59.12,0,0,0-20-11.7,30.41,30.41,0,0,0-6.44-1.34,19.08,19.08,0,0,0-7,.59,13.84,13.84,0,0,0-6.34,4,18.6,18.6,0,0,0-3.45,6.14,43.72,43.72,0,0,0-1.61,6.24,22.44,22.44,0,0,0-.31,6.62,16.6,16.6,0,0,0,6.49,11.06,16,16,0,0,0,5.44,2.75,12.77,12.77,0,0,0,5.93.36,7.75,7.75,0,0,0,2.83-1.19,9.51,9.51,0,0,0,2.06-1.92A14.44,14.44,0,0,0,799,439a12.07,12.07,0,0,0,.71-4.46,7.93,7.93,0,0,0-1.21-4,5.63,5.63,0,0,0-2.88-2.25,6,6,0,0,0-2.89-.33,4,4,0,0,0-3.12,1.91c-.31.68-.27.92,0,.69a4.57,4.57,0,0,1,1.47-1.12,4.9,4.9,0,0,1,5.42,1.36,5,5,0,0,1,1,2.42,9.88,9.88,0,0,1-1.57,6.24,10.07,10.07,0,0,1-2.35,2.74,5,5,0,0,1-3.2,1.06,12.13,12.13,0,0,1-7.55-3.06,12.59,12.59,0,0,1-4.27-7.53c-.45-2.9.33-6.21,1.38-9.56s2.53-6.15,4.87-7.51a9.51,9.51,0,0,1,4-1.27,16.68,16.68,0,0,1,4.64.28,27.42,27.42,0,0,1,4.69,1.34c.75.29,1.52.63,2.29,1s1.53.67,2.25,1.07a54.11,54.11,0,0,1,8.19,5.07c1.28.89,2.42,1.9,3.57,2.83s2.19,1.95,3.16,3a63.31,63.31,0,0,1,5.23,5.89c1.76,2.26,14.61,26.52,14.31,35.18-.72,20.92-5.07,42.09-11.28,62.41-4.72,15.45-15.74,29-30.63,38.09-50.17-60-25.61-99.93-23.25-102.89a22.49,22.49,0,0,1,9.5-7,16.56,16.56,0,0,1,11.78-.27,18.45,18.45,0,0,1,9.24,8.12,22.66,22.66,0,0,1,2.76,12.37,28.49,28.49,0,0,1-1.05,6.33,24.79,24.79,0,0,1-2.34,5.7,13.58,13.58,0,0,1-3.64,4.16,9.58,9.58,0,0,1-4.67,1.81,7.09,7.09,0,0,1-4.39-1,10.15,10.15,0,0,1-3.17-3.25,21.65,21.65,0,0,1-2.85-8.08,17,17,0,0,1,0-6.36,8.12,8.12,0,0,1,1.53-3.28c.48-.58.63-.84.26-.73a4.49,4.49,0,0,0-1.86,1.44,9.82,9.82,0,0,0-1.93,4.59,22.65,22.65,0,0,0,0,7.21,19.58,19.58,0,0,0,3.36,8.74,11.89,11.89,0,0,0,4.42,3.69,11,11,0,0,0,6.26.87,14.15,14.15,0,0,0,6.09-2.46,18.62,18.62,0,0,0,4.61-4.88,29,29,0,0,0,3-6,34.08,34.08,0,0,0,1.67-6.65,29.2,29.2,0,0,0-1.41-14.29,25.42,25.42,0,0,0-9.21-11.91A21.86,21.86,0,0,0,785,452.62a27.68,27.68,0,0,0-13.69,5.47,30,30,0,0,0-5.13,4.92,35,35,0,0,0-3.75,5.62,43,43,0,0,0-4.13,11.57,58.13,58.13,0,0,0-1.2,10.54c-.14,6.45-.93,27.61-2.29,32.9-19.23-11-55.6-32.36-55.89-32.7a29.19,29.19,0,0,0-4.29-3.25,52.86,52.86,0,0,1-10.1-7.41,43.31,43.31,0,0,1-6.76-8.29,42.74,42.74,0,0,1-5.15-11.84,37.07,37.07,0,0,1-.93-14.4,18.21,18.21,0,0,1,6.92-12.3c4-3.3,9.4-5.55,15-6.81s11.31-1.29,15.59,1.22a21.45,21.45,0,0,1,5.91,5.33,34.54,34.54,0,0,1,2.46,3.48,33.61,33.61,0,0,1,2,3.66,29.25,29.25,0,0,1,2.45,7.67,16.4,16.4,0,0,1-.39,7.26,11.68,11.68,0,0,1-3.67,5.5,14,14,0,0,1-6,2.81,17.35,17.35,0,0,1-12.22-2.24,24.85,24.85,0,0,1-4.64-3.5,22.37,22.37,0,0,1-3.35-3.94,10.55,10.55,0,0,1-1.63-3.86,6.21,6.21,0,0,1,.26-3.28,5.85,5.85,0,0,1,2.79-3.3c.83-.38,1.2-.52.72-.66a3.91,3.91,0,0,0-2.94.78,6.69,6.69,0,0,0-2,2.11,7.71,7.71,0,0,0-1.14,3.64c-.2,2.86,1.14,6.11,3.27,9a26.84,26.84,0,0,0,9.06,7.93,21.56,21.56,0,0,0,6.73,2.28,20,20,0,0,0,7.77-.27,18.62,18.62,0,0,0,7.59-3.69,17.55,17.55,0,0,0,5.24-7.4,22,22,0,0,0,1.17-9.12,32,32,0,0,0-1.94-8.88,43.24,43.24,0,0,0-4.05-8.18,34.77,34.77,0,0,0-6-7.36,24.37,24.37,0,0,0-4.13-3,22.72,22.72,0,0,0-4.82-2.06,30.07,30.07,0,0,0-10-1.06,49.75,49.75,0,0,0-18.23,4.71,35.87,35.87,0,0,0-8.08,5.3,27,27,0,0,0-6.19,7.75,28.59,28.59,0,0,0-3,9.12,37.84,37.84,0,0,0-.45,4.42c0,1.45-.08,2.9,0,4.32a46.8,46.8,0,0,0,3.51,15.76A50.51,50.51,0,0,0,672.48,481c4.89,6.19,46.57,36.5,64.41,45.93,7.05,3.72,14.7,8.64,18.39,14.67,22,35.83,34.67,73.57,28.5,114.72-1.32,8.82-.38,17.91-1.88,26.7-2.1,12.25-11,15.91-23.62,10.23-12.17-5.49-25-10.4-35.87-17.43-9.4-6.07-21-13.68-23.82-22.47-9.83-30.32-27.3-61.39-28.87-60.91-10.61-13.93-39-66.1-44.05-77.44a87.34,87.34,0,0,1-3.22-12.46,35.72,35.72,0,0,1-.56-10.48,17.84,17.84,0,0,1,1.35-5,17,17,0,0,1,2.89-4.5,15,15,0,0,1,9.39-5.08A14.32,14.32,0,0,1,646,480.25c2.88,2.24,4.72,5.85,5.78,9.69a47.25,47.25,0,0,1,1.23,5.93,41.4,41.4,0,0,1,.53,5.82c0,3.72-.84,7.1-3,9.38a8.73,8.73,0,0,1-3.57,2.49,6.13,6.13,0,0,1-3.79.19,3.34,3.34,0,0,1-1.35-.76,5.64,5.64,0,0,1-1-1.44,34.38,34.38,0,0,1-1.51-3.46,35.51,35.51,0,0,1-1.58-5.79c-.56-3.18-.62-4.79-.9-4.14a18.2,18.2,0,0,0-.18,6.5,29.49,29.49,0,0,0,1.4,6.31c.19.59.41,1.17.67,1.8a7.38,7.38,0,0,0,1.14,2,6.72,6.72,0,0,0,4.56,2.16,9.81,9.81,0,0,0,5.18-.93A13.14,13.14,0,0,0,654,512.6a14.49,14.49,0,0,0,2.79-5.1,21.84,21.84,0,0,0,1-5.79,42.36,42.36,0,0,0-.16-5.86,57.37,57.37,0,0,0-.82-5.93A25.86,25.86,0,0,0,651.55,478a19.24,19.24,0,0,0-12.31-6.48,20.33,20.33,0,0,0-7.08.34,20.79,20.79,0,0,0-6.51,2.76A23.19,23.19,0,0,0,617,484.94a27,27,0,0,0-2,10.9c-.35.11,0,4.14.51,6.05.31,2.14.72,4.18,1.17,6.12a78.33,78.33,0,0,0,2.66,9c.35,1,.72,1.92,1.09,2.83l10.29,37.61c-21.84-1.76-71.91-8.73-74.5-9.77a107.23,107.23,0,0,1-9.78-4.56l-6.35-3.37c-2.25-1.21-4.57-2.49-6.9-3.9-4.64-2.81-9.4-6.13-13.08-10.44a29.06,29.06,0,0,1-2.51-3.41,26.81,26.81,0,0,1-2-3.84,53.18,53.18,0,0,1-2.89-9.37c-1.48-6.67-2-13.79-.27-20.23a25,25,0,0,1,1.68-4.61,20.32,20.32,0,0,1,2.55-4.06,21.24,21.24,0,0,1,7.48-6,17.31,17.31,0,0,1,4.4-1.35,14,14,0,0,1,4.43.05,22.65,22.65,0,0,1,9.05,4.24c1.49,1.07,3,2.29,4.42,3.56s2.83,2.58,4.13,3.93a42.21,42.21,0,0,1,6.54,8.64,29.38,29.38,0,0,1,3.32,9.73,84.75,84.75,0,0,1,.9,10.86c.15,3.72.21,7.05-.62,9.54a8.31,8.31,0,0,1-.75,1.68,4.58,4.58,0,0,1-.49.7l-.25.33-.29.29a7.17,7.17,0,0,1-3,1.72,10,10,0,0,1-7.16-.55,12.6,12.6,0,0,1-5.18-5,17.92,17.92,0,0,1-1.94-13.07,8.84,8.84,0,0,1,.94-2.23,7,7,0,0,1,1.4-1.65,6.64,6.64,0,0,1,3.58-1.65,5.47,5.47,0,0,1,.9,0c.09,0,.11,0,.14.1l.1.17.19.33.71,1.23c.45.77.85,1.41,1.18,1.9.66,1,1,1.32,1,.67a19.42,19.42,0,0,0-1.13-4c-.19-.53-.4-1.1-.63-1.72l-.37-1c0-.07-.05-.19-.12-.23l-.25-.06c-.17,0-.35-.08-.53-.1a8.51,8.51,0,0,0-4.85.69,10.72,10.72,0,0,0-4.76,4.19,15,15,0,0,0-1.47,3.19,18.37,18.37,0,0,0-.73,3.51,22.84,22.84,0,0,0,.46,7.7,20.69,20.69,0,0,0,3.67,7.91,17.71,17.71,0,0,0,3.45,3.41,15.37,15.37,0,0,0,4.66,2.35,16,16,0,0,0,11-.5,13.49,13.49,0,0,0,5-3.69,15.6,15.6,0,0,0,2.9-5.46,40,40,0,0,0,1.24-10.91,94.24,94.24,0,0,0-.23-10.79,39.43,39.43,0,0,0-2.77-11.6,45.53,45.53,0,0,0-6.19-10.43,73,73,0,0,0-8.11-8.71,46.82,46.82,0,0,0-10.2-7.39A28.11,28.11,0,0,0,535.2,462a32.51,32.51,0,0,0-3.6-.54,26,26,0,0,0-3.64,0,28.19,28.19,0,0,0-13.17,4.63,33.37,33.37,0,0,0-9.54,9.51c-5,7.7-6.36,16.44-6.15,24.36a65.53,65.53,0,0,0,1.39,11.49,64.6,64.6,0,0,0,3.15,10.79,40.07,40.07,0,0,0,5.71,10,34.44,34.44,0,0,0,7.44,7.55c26.08,17.62,70.81,22.65,81.88,24,19.88,2.43,38,5.44,50.76,21.37,17.79,22.2,20.62,47.14,24.19,74.48-7.13-1.65-23.17-7.32-24.78-8.49a30.91,30.91,0,0,0-5.27-3c-2.45-1.13-5.37-2.25-8.89-3.48s-7.61-2.47-12.19-3.62-9.76-2.13-14.92-3.05-10.48-2-15.23-4.12a24.68,24.68,0,0,1-6.41-4,14.75,14.75,0,0,1-1.33-1.29,13.92,13.92,0,0,1-1.23-1.42,27,27,0,0,1-2.19-3.38c-.69-1.23-1.34-2.56-2-4s-1.3-2.83-1.89-4.23a48.32,48.32,0,0,1-2.78-8.43,27.55,27.55,0,0,1-.58-4.16,19.83,19.83,0,0,1,.19-4A15.72,15.72,0,0,1,577,592a10.36,10.36,0,0,1,5.83-3.86,14.64,14.64,0,0,1,7.54.17,19.51,19.51,0,0,1,7,3.7,32.51,32.51,0,0,1,5.63,6c3.3,4.45,5.7,9.27,5.6,13.67,0,4.18-3.08,8.13-6.34,8.8a6.17,6.17,0,0,1-4.68-.91,10.3,10.3,0,0,1-3.33-3.53,13.25,13.25,0,0,1-1.55-4.17,25.88,25.88,0,0,1-.46-3.85c-.09-2.35,0-4.15-.05-5.22s-.16-1.44-.4-1a15.34,15.34,0,0,0-.87,3,28.19,28.19,0,0,0-.66,6.49,17.6,17.6,0,0,0,.73,4.51,14.19,14.19,0,0,0,2.59,4.79,11,11,0,0,0,5.31,3.63,9.65,9.65,0,0,0,3.66.38,11,11,0,0,0,3.69-1.06,13.77,13.77,0,0,0,5.66-5.39,14.36,14.36,0,0,0,1.57-3.89,16.81,16.81,0,0,0,.44-4.23,24.06,24.06,0,0,0-1.82-8.25,42.89,42.89,0,0,0-4-7.47,38.89,38.89,0,0,0-5.68-6.86,27.64,27.64,0,0,0-8-5.35,23.2,23.2,0,0,0-10-1.87A18.85,18.85,0,0,0,574,583.67a20.61,20.61,0,0,0-6.71,8.67,26.77,26.77,0,0,0-2.09,10.38,37.66,37.66,0,0,0,1.42,9.95,72.18,72.18,0,0,0,3.12,8.87,68.78,68.78,0,0,0,4,8.43,31,31,0,0,0,2.85,4.16c.55.67,1.15,1.28,1.72,1.91s1.24,1.16,1.86,1.73c.43.37.88.71,1.32,1.05-9.56-2.4-19-5-28.41-7.75-4.36-1.3-19.38-13.29-43-22.33C471.47,594,433.45,592.51,433.12,545a16.22,16.22,0,0,1,.1-2.3,18.77,18.77,0,0,1,1.25-4.59,20.23,20.23,0,0,1,6-7.86,17.84,17.84,0,0,1,4.22-2.58,17.14,17.14,0,0,1,4.73-1.34,23,23,0,0,1,18.83,6.34,26.75,26.75,0,0,1,5.72,8.59,60.87,60.87,0,0,1,3.28,10.48,55.4,55.4,0,0,1,1.67,10.37c.13,3.21-.41,6.1-1.77,8-.19.22-.37.44-.55.67l-.63.6a7.13,7.13,0,0,1-1.41.92,8.67,8.67,0,0,1-3.47.81,11.49,11.49,0,0,1-6.95-2.17,20.65,20.65,0,0,1-5.18-5.33,17,17,0,0,1-2.8-5.9,8,8,0,0,1-.16-2.64,6.82,6.82,0,0,1,.71-2.29,4.87,4.87,0,0,1,2.87-2.54,4.49,4.49,0,0,1,4.66,1.86c.32.47.43.86.56,1s.24.15.33-.16a2.6,2.6,0,0,0-.05-1.46,4.71,4.71,0,0,0-1.55-2.26,6,6,0,0,0-3.78-1.4,6.74,6.74,0,0,0-4.84,2.23,9.73,9.73,0,0,0-2.6,5.85,15.1,15.1,0,0,0,1.27,7.1,28.82,28.82,0,0,0,4,6.74,20.82,20.82,0,0,0,6.94,5.74,16.21,16.21,0,0,0,10.23,1.41,13.45,13.45,0,0,0,5.38-2.35,13.86,13.86,0,0,0,4-4.59,23,23,0,0,0,2.39-11.22,67.48,67.48,0,0,0-1.2-10.79,68.37,68.37,0,0,0-2.71-11,36.88,36.88,0,0,0-5.82-11,33.11,33.11,0,0,0-22.9-12.3A29.49,29.49,0,0,0,440,517.86a14,14,0,0,0-1.63.73c-.52.27-1.06.53-1.58.82a32.93,32.93,0,0,0-3,1.94A31.13,31.13,0,0,0,422,538.73a29.19,29.19,0,0,0-.81,7.3c.08,2.42-4.45,32.73,12.23,46.48,1.41,1.43,11.49,11.27,87.69,41.36a21.39,21.39,0,0,0-4.81-1.33,83.45,83.45,0,0,0-18.18-.24A107.88,107.88,0,0,0,465,640.66a93.39,93.39,0,0,0-18.72,10.58,61.53,61.53,0,0,0-8.84,7.92c-2.64,2.88-9.41,15.54-9.71,16.45-.28,1.09-.64,2.17-.81,3.28l-.31,1.66-.2,1.67a35,35,0,0,0,1.17,13.46,28.86,28.86,0,0,0,6.95,12.16l1.33,1.23,1.18,1,.22.17,1.47,1.06,1.55.93a26.53,26.53,0,0,0,6.63,2.54,29.75,29.75,0,0,0,13.57,0,31.66,31.66,0,0,0,11.9-5.5,38.37,38.37,0,0,0,8.61-9,46.05,46.05,0,0,0,5.41-10.43A25.32,25.32,0,0,0,488.21,678a13.31,13.31,0,0,0-2.36-6.21,10,10,0,0,0-1.11-1.31,10.56,10.56,0,0,0-1.28-1.13,12.34,12.34,0,0,0-2.82-1.57,16,16,0,0,0-5.65-1.12,20,20,0,0,0-5.3.57,22.24,22.24,0,0,0-14.05,11.18,15.49,15.49,0,0,0-1.92,7.65c.12,5.34,4.37,9.17,8.19,8.94a6.39,6.39,0,0,0,4.15-1.8,5.06,5.06,0,0,0,1.49-2.61,2.55,2.55,0,0,0-.06-1.45c-.1-.21-.21-.15-.32.14a5.05,5.05,0,0,1-4.87,3.55,4.67,4.67,0,0,1-3.14-1.43,6.65,6.65,0,0,1-1.85-3.76,9.34,9.34,0,0,1,.81-4.91,17.82,17.82,0,0,1,8.52-8.69,19.29,19.29,0,0,1,3.17-1.14,15.86,15.86,0,0,1,3.37-.42,13.51,13.51,0,0,1,3.36.42,7.75,7.75,0,0,1,2.77,1.32c1.44,1.14,2.09,2.94,2.06,5.32a16.33,16.33,0,0,1-.57,3.73,24.58,24.58,0,0,1-1.41,3.9,35.44,35.44,0,0,1-10.6,13.94,24.84,24.84,0,0,1-3.67,2.35,21.73,21.73,0,0,1-4,1.61,22.4,22.4,0,0,1-8.48.87,17.41,17.41,0,0,1-7.69-2.59,16.11,16.11,0,0,1-3-2.52c-.42-.51-.86-1-1.25-1.56a15.87,15.87,0,0,1-1.06-1.72,21.45,21.45,0,0,1-2.44-8,25.91,25.91,0,0,1,.56-8.52c.12-.7.39-1.36.56-2s.49-1.3.74-1.95a31.16,31.16,0,0,1,2-3.84,35.55,35.55,0,0,1,2.8-3.93c11-15.5,24-21.88,36.43-24.06,28-4.91,57.69.51,84.52,4.06,32.41,4.29,64.54,12.83,95.63,23.07a23.13,23.13,0,0,0,3.09,3.14c1,.84,2.63,2.16,4.81,3.93s4.87,4,7.73,6.81a63,63,0,0,1,8.62,10.28,59.39,59.39,0,0,1,7,14.54,39.14,39.14,0,0,1,1.77,8.33,21.41,21.41,0,0,1-.71,8.06,13.25,13.25,0,0,1-4.16,6.32,24.34,24.34,0,0,1-7.93,4.33,41,41,0,0,1-20.07,1.78,31.73,31.73,0,0,1-4.93-1.23,28.71,28.71,0,0,1-4.63-2c-.75-.36-1.44-.83-2.16-1.25s-1.4-.92-2-1.46a28.26,28.26,0,0,1-9-11.73,22,22,0,0,1-1.59-9.26,12.52,12.52,0,0,1,.93-4.06,8,8,0,0,1,2.15-3,13.7,13.7,0,0,1,7.77-2.78,26.61,26.61,0,0,1,9,1,28.38,28.38,0,0,1,8,3.67,27.59,27.59,0,0,1,6.19,5.55c1.78,2.08,2.92,4.15,2.86,5.81a6.19,6.19,0,0,1-2.67,4.65,8.3,8.3,0,0,1-5.06,1.74,9,9,0,0,1-4.59-1.56,12.78,12.78,0,0,1-3.15-3,19.24,19.24,0,0,1-2.68-5.27c-.39-1.17-.62-1.58-.77-1a9.11,9.11,0,0,0,.22,3.74,14,14,0,0,0,1.17,3.29,14.2,14.2,0,0,0,2.62,3.72,12.22,12.22,0,0,0,4.75,3.09,10.45,10.45,0,0,0,3.29.63,12.11,12.11,0,0,0,3.54-.5,12.43,12.43,0,0,0,6.41-4.47,10,10,0,0,0,1.76-4.22,9.63,9.63,0,0,0,.08-2.46,11.51,11.51,0,0,0-.5-2.36,17.84,17.84,0,0,0-2-4.08c-.39-.61-.82-1.2-1.25-1.8s-.91-1.17-1.39-1.75a35.07,35.07,0,0,0-7-6.15,34.12,34.12,0,0,0-19.38-5.8,24.37,24.37,0,0,0-5.66.77,19,19,0,0,0-5.69,2.46,16.09,16.09,0,0,0-4.72,4.72,18.67,18.67,0,0,0-2.52,6,28,28,0,0,0,.12,12.22,35.1,35.1,0,0,0,4.69,11.16,38.28,38.28,0,0,0,8.08,9.06,39.4,39.4,0,0,0,10.56,6.15,47.8,47.8,0,0,0,23.56,2.65,50.24,50.24,0,0,0,5.75-1.08,43.37,43.37,0,0,0,5.63-1.73,32.84,32.84,0,0,0,10.61-6.3,25,25,0,0,0,7-10.82,32,32,0,0,0,1.38-11.68,46.57,46.57,0,0,0-1.84-10.39,67,67,0,0,0-3.39-9A66.21,66.21,0,0,0,691,685.24c-1-1.16-1.93-2.24-2.91-3.27,62.34,23.16,101.27,66.32,123.41,120.92,1.91,4.69.93,13.66-2.59,15.7-4.68,2.7-14.35,2.49-19.83.1-20.55-9-40.81-18.62-60.16-29.37-27.65-15.37-55.91-15.57-86.19-7-15.1,4.26-31.13,6.48-47,8.34-16.57,1.94-64.75.73-67.42-1s-6-3.85-9.45-6.25c-1.74-1.2-3.53-2.5-5.27-3.93a50.93,50.93,0,0,1-5.15-4.83,53,53,0,0,1-9.06-13.44,50.53,50.53,0,0,1-3.12-8.51,42.77,42.77,0,0,1-1-4.49,37.53,37.53,0,0,1-.43-4.66c-.23-6.29,1.14-13,4.47-18.06a19.07,19.07,0,0,1,6.43-6,32.44,32.44,0,0,1,9.94-3.22c1.92-.36,4-.65,6-.9s4.06-.42,6.05-.49a42.31,42.31,0,0,1,11.37,1l1.32.35,1.24.44L543,717l1.2.57,1.21.55,1.16.7,1.17.69,1.1.81a31.58,31.58,0,0,1,7.64,8.1,30.56,30.56,0,0,1,5,21.27l-.2,1.35c-.1.45-.2.89-.32,1.32a18.76,18.76,0,0,1-.79,2.4,12.46,12.46,0,0,1-2.38,3.77,18.22,18.22,0,0,1-8.57,4.77,30.92,30.92,0,0,1-5.41,1q-1.39.12-2.79.15c-.95,0-1.86,0-2.7-.06-3.47-.28-5.14-1.07-7.22-3.44a19.23,19.23,0,0,1-2.59-4.1,22.83,22.83,0,0,1-1.71-4.67,18,18,0,0,1-.1-9.1,12.23,12.23,0,0,1,4.46-6.67,10.4,10.4,0,0,1,6.91-2.32c2.23.11,4.64,1.36,6.82,3a17.77,17.77,0,0,1,5,5.5,9.94,9.94,0,0,1,1.28,6,8.08,8.08,0,0,1-.71,2.67,6.86,6.86,0,0,1-1.37,2,5.7,5.7,0,0,1-3.09,1.53,8.13,8.13,0,0,1-3.26-.19,10.71,10.71,0,0,1-1.45-.48,10.93,10.93,0,0,1-1.23-.67l-.55-.35-.47-.39a8.47,8.47,0,0,1-.8-.77,7.72,7.72,0,0,1-1-1.44c-.28-.42-.41-.78-.56-1-.28-.49-.49-.56-.58,0a5.39,5.39,0,0,0-.07.84,9.34,9.34,0,0,0,.23,1.31,8.59,8.59,0,0,0,2.15,3.51,11.34,11.34,0,0,0,5.29,3,11.17,11.17,0,0,0,3.91.19,9.69,9.69,0,0,0,4.12-1.69c4.06-3,5.9-9.14,4-15a21.35,21.35,0,0,0-4.82-7.84,30,30,0,0,0-3.58-3.22,21,21,0,0,0-4.56-2.66,16.06,16.06,0,0,0-5.76-1.21,17.55,17.55,0,0,0-6,1,20.5,20.5,0,0,0-9.84,7.27,23.05,23.05,0,0,0-4.23,12.13,31.18,31.18,0,0,0,2,12.77,31.63,31.63,0,0,0,2.93,6,22.22,22.22,0,0,0,4.94,5.62,17.71,17.71,0,0,0,3.51,2.19,20.88,20.88,0,0,0,3.78,1.34,34.18,34.18,0,0,0,7.08.89A42.28,42.28,0,0,0,555,774a31.47,31.47,0,0,0,7-3.07,25.09,25.09,0,0,0,8.73-8.71,27.2,27.2,0,0,0,1.82-3.67,34.57,34.57,0,0,0,1.25-3.67c.37-1.2.56-2.47.82-3.71a41.48,41.48,0,0,0-.12-15.11,46.25,46.25,0,0,0-5.19-14.12,45.09,45.09,0,0,0-9.54-11.81,41.75,41.75,0,0,0-13.33-8,48.84,48.84,0,0,0-14.71-2.84,85.53,85.53,0,0,0-13.81.55,67.41,67.41,0,0,0-13.74,2.75,38.8,38.8,0,0,0-7.06,3.12c-1.16.64-2.23,1.46-3.33,2.2s-2.05,1.69-3.05,2.54a37.3,37.3,0,0,0-8.55,12.38,46.73,46.73,0,0,0-3.53,13.38,54,54,0,0,0,.06,13,55,55,0,0,0,1.13,6.16c.48,1.95,1,3.86,1.67,5.71a66.69,66.69,0,0,0,4.6,10.4,65.69,65.69,0,0,0,12.58,16.22,62.8,62.8,0,0,0,7.06,5.7c2.31,1.62,4.53,3,6.61,4.19l.82.47c-20.5.72-34.31,3-54.95.4C418.94,793.53,356.8,778.26,356.56,778s-.5-.64-.8-1a13.4,13.4,0,0,0-1-1c-.36-.36-.73-.73-1.16-1.1a42.22,42.22,0,0,1-6.17-6.25,40.7,40.7,0,0,1-4-6.13,35.84,35.84,0,0,1-3-8.32,22.74,22.74,0,0,1-.45-2.38,20.23,20.23,0,0,1-.27-2.48,24,24,0,0,1-.08-2.55,17.92,17.92,0,0,1,.13-2.56,12.06,12.06,0,0,1,1.17-4.29,6.88,6.88,0,0,1,1.11-1.49,11.79,11.79,0,0,1,1.83-1.43c.75-.47,1.62-.95,2.57-1.42l1.41-.7,1.45-.65a50.37,50.37,0,0,1,6.08-2.19,46.28,46.28,0,0,1,13.1-1.92,42,42,0,0,1,6.71.57,38.79,38.79,0,0,1,6.49,1.73,35,35,0,0,1,11.42,7.09,30.66,30.66,0,0,1,4.42,5.05,27.17,27.17,0,0,1,3.19,5.77c1.65,3.95,2.56,8.66,1.32,11.42-.94,2.63-5.11,4.42-8.78,4.75a16.71,16.71,0,0,1-10.46-2.47,17.32,17.32,0,0,1-7.71-11.93,7.32,7.32,0,0,1,.17-3.68,4,4,0,0,1,2.45-2.22,4.28,4.28,0,0,1,3,0,4.54,4.54,0,0,1,2.27,2.43,5.78,5.78,0,0,1,.44,2.51,13.71,13.71,0,0,1-.19,1.39c0,.26.06.32.27.13a4.05,4.05,0,0,0,1.08-2.73,6.55,6.55,0,0,0-.45-2.78,6.13,6.13,0,0,0-2.4-2.87,6.5,6.5,0,0,0-4.77-.7,6.87,6.87,0,0,0-4.63,3.47,10.06,10.06,0,0,0-.92,5,20.4,20.4,0,0,0,.86,5.07,21.14,21.14,0,0,0,17.82,15,22,22,0,0,0,7-.24,18.14,18.14,0,0,0,7-2.88,12.06,12.06,0,0,0,3.06-3.14,13,13,0,0,0,1.75-4.06,20.26,20.26,0,0,0,.12-8,36.51,36.51,0,0,0-2.05-7.33,38,38,0,0,0-3.6-6.78,42.09,42.09,0,0,0-25.08-17.23,53,53,0,0,0-29.55,1.83,61.39,61.39,0,0,0-6.55,2.74,26.92,26.92,0,0,0-6.49,4.11,16.48,16.48,0,0,0-2.86,3.4,18.29,18.29,0,0,0-1.76,3.81,26.24,26.24,0,0,0-1.21,7.13,40,40,0,0,0,1.46,12.36,43.05,43.05,0,0,0,4.26,10,38.38,38.38,0,0,0,11,12.11c.29.22-4.46,5.28-5.87,7.42a23.28,23.28,0,0,0-3.28,8c-.63,3-1.48,6.34-.49,9.6,7.56,24.91,31.41,17,34.67,13.48a10.17,10.17,0,0,0,2.17-5.25,22,22,0,0,0,.32-5.1,16,16,0,0,0-1-4.88,12.8,12.8,0,0,0-2.55-4.09,10,10,0,0,0-7.89-3.39,8.31,8.31,0,0,0-6.19,3.37,7.65,7.65,0,0,0-1.25,5,13.25,13.25,0,0,0,.45,2.79c.15.55.26.71.33.45a11.41,11.41,0,0,0,.08-1.6,14.83,14.83,0,0,1,.36-3.2,5.73,5.73,0,0,1,2.43-3.48,6.89,6.89,0,0,1,5.12-1,8.3,8.3,0,0,1,5,3.52,11.58,11.58,0,0,1,1.89,6.73c0,2.48,2,6.81-8.28,9.4-2.91.74-6,.17-8.75-.27a14.27,14.27,0,0,1-7.19-3,13,13,0,0,1-3.86-6.28,22.88,22.88,0,0,1-.79-7.51c.27-5,1.87-9.36,4.24-12.07a13,13,0,0,1,7.28-4.28l.29-.06c40.44,9.45,56.16,19,100,29.22-3.15,1.51-6.32,2.91-9.49,4.26C443.12,818.06,421.44,837.37,420.41,839ZM525.08,638.2a1.82,1.82,0,0,0,0-.52l.4.38Z"/><path class="cls-9" d="M370.45,903.13,367.34,1088a96.63,96.63,0,0,1-5.79,31.1,80.83,80.83,0,0,1-14.9,25.41,68.39,68.39,0,0,1-23.58,17.31,75.05,75.05,0,0,1-31.37,6.35q-17.34,0-31.14-6.38a73.4,73.4,0,0,1-23.8-17.4,76.33,76.33,0,0,1-15.35-25.74,90.5,90.5,0,0,1-5.34-31,20.25,20.25,0,0,1,6.23-15,20.69,20.69,0,0,1,15.12-6.17q8.9,0,13.13,4.38a26.69,26.69,0,0,1,6.23,10.92,119.16,119.16,0,0,1,3.33,14.2,55.07,55.07,0,0,0,4.45,14.19,28.41,28.41,0,0,0,9.12,10.93q6,4.37,18,4.37,17.35,0,24.92-11.58t8-26.87l3.11-184.38"/><path class="cls-9" d="M558.9,1079.58a21.27,21.27,0,0,1,29.18,7.82q4.67,8.08,1.1,18.37a71.94,71.94,0,0,1-10.87,19.88,111.75,111.75,0,0,1-16.58,17.54,110.37,110.37,0,0,1-15.46,11.5,105.1,105.1,0,0,1-39,13.42,106.22,106.22,0,0,1-39.65-1.94,100.86,100.86,0,0,1-35.43-16.44,95.35,95.35,0,0,1-38.76-67.13,98.57,98.57,0,0,1,3.59-38.72,108.26,108.26,0,0,1,18.25-35.12,105.12,105.12,0,0,1,31.12-27.07,106.32,106.32,0,0,1,38.7-13.51,107.46,107.46,0,0,1,39.14,1.51,99.06,99.06,0,0,1,34.86,15.44,87.35,87.35,0,0,1,25.84,28.29,19.15,19.15,0,0,1,1.73,15.47,21,21,0,0,1-10.1,12.75l-121.76,70.3a65.25,65.25,0,0,0,34.2,13.39,58.44,58.44,0,0,0,35.91-7.63,46.17,46.17,0,0,0,11.88-9.68,97.08,97.08,0,0,0,8.59-11.38c2.43-3.8,4.64-7.22,6.66-10.27A20.89,20.89,0,0,1,558.9,1079.58Z"/><path class="cls-10" d="M433.23,1074.57,533,1017q-12.91-8.13-30.81-8a69.28,69.28,0,0,0-34.47,9.7,70.54,70.54,0,0,0-25.83,25.11Q432.64,1059.32,433.23,1074.57Z"/><path class="cls-9" d="M621.82,990.22a21.27,21.27,0,0,1,21.36-21.36H781.54a21.27,21.27,0,0,1,21.36,21.36,22.45,22.45,0,0,1-5.79,15.12L690.78,1125h90.76a21.36,21.36,0,1,1,0,42.71H643.18a21.25,21.25,0,0,1-21.36-21.35,21.27,21.27,0,0,1,5.34-14.24L733.94,1012H643.18a20.23,20.23,0,0,1-15.13-6.45A21.31,21.31,0,0,1,621.82,990.22Z"/><path class="cls-9" d="M971.07,1006.37a20.34,20.34,0,0,1-6.23,15,20.69,20.69,0,0,1-15.12,6.18,17.93,17.93,0,0,1-9.57-2.59q-4.23-2.6-8.68-5.63a78.31,78.31,0,0,0-9.78-5.61,29.34,29.34,0,0,0-12.91-2.6q-19.57,0-27.58,11.68t-9.57,29a213,213,0,0,0,.23,37.64q1.77,20.34,2,37.64t-4.23,29q-4.46,11.67-18.68,11.67a21.25,21.25,0,0,1-21.36-21.35V990.22A21.27,21.27,0,0,1,851,968.86a17.44,17.44,0,0,1,8.89,2.31,27.84,27.84,0,0,1,7.12,5.9,102.25,102.25,0,0,1,41.82-8.65,76.83,76.83,0,0,1,17.8,2.64,105.7,105.7,0,0,1,20.69,7.51,59.94,59.94,0,0,1,16.9,11.92Q971.07,997.56,971.07,1006.37Z"/><path class="cls-11" d="M1148.85,1079.58a21.26,21.26,0,0,1,29.17,7.82q4.67,8.08,1.1,18.37a71.76,71.76,0,0,1-10.86,19.88,112.28,112.28,0,0,1-16.59,17.54,109.78,109.78,0,0,1-15.46,11.5,105.1,105.1,0,0,1-39,13.42,106.22,106.22,0,0,1-39.65-1.94,101,101,0,0,1-35.43-16.44,95.35,95.35,0,0,1-38.76-67.13,98.57,98.57,0,0,1,3.59-38.72,108.26,108.26,0,0,1,18.25-35.12,105.12,105.12,0,0,1,31.12-27.07,106.39,106.39,0,0,1,38.7-13.51,107.46,107.46,0,0,1,39.14,1.51A99,99,0,0,1,1149,985.13a87.35,87.35,0,0,1,25.84,28.29,19.19,19.19,0,0,1,1.74,15.47,21,21,0,0,1-10.11,12.75l-121.75,70.3a65.34,65.34,0,0,0,34.19,13.4,58.54,58.54,0,0,0,35.92-7.64,46.29,46.29,0,0,0,11.87-9.68,96,96,0,0,0,8.59-11.38q3.65-5.7,6.66-10.27A20.91,20.91,0,0,1,1148.85,1079.58Z"/><path class="cls-12" d="M1023.17,1074.57,1123,1017q-12.92-8.13-30.81-8a69.13,69.13,0,0,0-34.46,9.71,70.39,70.39,0,0,0-25.84,25.1Q1022.58,1059.32,1023.17,1074.57Z"/><path class="cls-9" d="M1376.32,1079.58a21.26,21.26,0,0,1,29.17,7.82q4.68,8.08,1.1,18.37a71.76,71.76,0,0,1-10.86,19.88,111.81,111.81,0,0,1-16.59,17.54,109.78,109.78,0,0,1-15.46,11.5,105,105,0,0,1-39,13.42,106.22,106.22,0,0,1-39.65-1.94,101.21,101.21,0,0,1-35.43-16.44,95.35,95.35,0,0,1-38.76-67.13,98.76,98.76,0,0,1,3.59-38.72,108.26,108.26,0,0,1,18.25-35.12,105.24,105.24,0,0,1,31.12-27.07,107.67,107.67,0,0,1,77.84-12,99,99,0,0,1,34.86,15.44,87.24,87.24,0,0,1,25.84,28.29,19.15,19.15,0,0,1,1.74,15.47,21,21,0,0,1-10.11,12.75l-121.75,70.3a65.34,65.34,0,0,0,34.19,13.4,58.54,58.54,0,0,0,35.92-7.64,46.51,46.51,0,0,0,11.88-9.68,97,97,0,0,0,8.58-11.38q3.64-5.7,6.66-10.27A20.91,20.91,0,0,1,1376.32,1079.58Z"/><path class="cls-10" d="M1250.64,1074.57l99.79-57.62q-12.9-8.13-30.8-8a69.14,69.14,0,0,0-34.47,9.71,70.28,70.28,0,0,0-25.83,25.1Q1250.06,1059.32,1250.64,1074.57Z"/><path class="cls-9" d="M1437.77,905.34c0-6-2.92-11,1.23-15.2a20.55,20.55,0,0,1,15.13-6.26c5.93,0,16,2.09,20.13,6.26a20.75,20.75,0,0,1,6.23,15.2v240.93a21.31,21.31,0,0,1-21.36,21.46,20.54,20.54,0,0,1-15.13-6.25,20.76,20.76,0,0,1-6.23-15.21Z"/><path class="cls-10" d="M371.28,601.22c14-1.52,38-4.71,55.23,7.69,14,10.15,17,25.37,10.14,34.93A16.34,16.34,0,0,1,427,650c-3.36-.29-27.29-3.07-50.2-24.16,0,0,16.63,25.45,43.53,33.71a16.24,16.24,0,0,1-2.81,10.75c-6.9,9.58-23.86,9.1-37.91-1-30.54-22.05-34.07-71-34.07-71S355.75,602.93,371.28,601.22Z"/><path class="cls-10" d="M709.43,361.75c4.93,8.24,13.78,22.33,11,36.57-2.31,11.62-11,17.81-18.86,16.24a11.08,11.08,0,0,1-6.55-4.25c-.78-2.16-5.85-17.85.76-38.1,0,0-11.11,17.57-8.59,36.68a11.18,11.18,0,0,1-7.51,1.31c-7.9-1.57-12.43-12.28-10.13-23.89,5-25.28,34.52-41.42,34.52-41.42S704,352.56,709.43,361.75Z"/><path class="cls-11" d="M1252.53,374.8c-2.2,11.43-5.59,31.32-19.66,41.91-11.49,8.64-24.3,7.25-30.19-.56a13.49,13.49,0,0,1-2.48-9.13c1-2.59,9.14-20.88,31.48-33.85,0,0-24.24,6.91-37.41,26.23a13.53,13.53,0,0,1-7.85-4.89c-5.88-7.8-1.32-21.15,10.15-29.78,25-18.79,64.7-9.56,64.7-9.56S1255,362.07,1252.53,374.8Z"/><path class="cls-11" d="M1013.38,401.48c3.21,9.66,9.15,26.23,3,40.3-5,11.48-15.36,15.92-23.17,12.48a11.87,11.87,0,0,1-5.82-5.85c-.31-2.44-2-19.81,9.48-39.24,0,0-15.49,15.64-17.24,36a11.83,11.83,0,0,1-8.06-.35c-7.82-3.44-10.07-15.53-5-27,11-25,45.12-34.94,45.12-34.94S1009.81,390.73,1013.38,401.48Z"/><path class="cls-10" d="M504.42,389.7c10.81,6.16,29.79,16.38,35.7,34.25,4.82,14.57-1,27.07-10.87,30.35a14.4,14.4,0,0,1-10.09-.58c-2.28-2-18-16.41-23.53-43.46,0,0-1.27,26.91,13.79,46.84a14.4,14.4,0,0,1-7.65,6.28c-9.9,3.28-21.86-5.88-26.69-20.46-10.47-31.71,12.43-68.75,12.43-68.75S492.38,382.84,504.42,389.7Z"/><path class="cls-11" d="M379.6,499.58c9.15-2.71,24.9-7.75,37.92-1.51,10.62,5.1,14.44,14.94,11,22.17a11.12,11.12,0,0,1-5.69,5.27c-2.29.21-18.63,1.21-36.52-10.14,0,0,14.2,15,33.21,17.31a11,11,0,0,1-.6,7.55c-3.46,7.24-14.89,8.95-25.5,3.86C370.3,533,362,500.64,362,500.64S369.4,502.58,379.6,499.58Z"/><path class="cls-10" d="M1085.31,383.08c9.15-2.72,24.89-7.75,37.91-1.51,10.62,5.1,14.44,14.93,11,22.16a11,11,0,0,1-5.69,5.27c-2.29.21-18.63,1.21-36.52-10.14,0,0,14.2,15,33.21,17.32a11,11,0,0,1-.6,7.55c-3.46,7.23-14.88,8.95-25.5,3.86-23.09-11.09-31.36-43.45-31.36-43.45S1075.1,386.08,1085.31,383.08Z"/><path class="cls-11" d="M1344.4,645.28c-.68,9.52-1.49,26-11.91,36-8.51,8.15-19.06,8.27-24.61,2.48a11,11,0,0,1-2.93-7.18c.6-2.21,5.41-17.87,22.32-30.63,0,0-19.06,8-27.88,25a10.93,10.93,0,0,1-6.85-3.22c-5.56-5.78-3.15-17.08,5.34-25.22,18.5-17.73,51.7-14.1,51.7-14.1S1345.18,634.67,1344.4,645.28Z"/><path class="cls-10" d="M1220.65,763.78c-6.25-7.21-17.34-19.47-17-33.9.26-11.78,7.64-19.33,15.66-19.15a11,11,0,0,1,7.15,3c1.13,2,8.79,16.46,5.85,37.44,0,0,7.82-19.14,2-37.4a11,11,0,0,1,7.12-2.57c8,.16,14.3,9.86,14,21.63-.56,25.61-26.61,46.51-26.61,46.51S1227.6,771.84,1220.65,763.78Z"/><path class="cls-11" d="M1195.26,847.81c-.68,9.52-1.49,26-11.91,36-8.51,8.15-19.06,8.27-24.61,2.48a11,11,0,0,1-2.93-7.18c.6-2.21,5.41-17.87,22.32-30.63,0,0-19.06,8-27.88,25a10.93,10.93,0,0,1-6.85-3.22c-5.56-5.78-3.15-17.08,5.34-25.22,18.5-17.73,51.7-14.1,51.7-14.1S1196,837.2,1195.26,847.81Z"/><path class="cls-11" d="M1316.23,449.4c3.78,8.77,10.65,23.8,6,37.47-3.8,11.15-13.11,16.11-20.7,13.53a11.1,11.1,0,0,1-5.91-5c-.48-2.24-3.41-18.35,5.73-37.47,0,0-13.23,15.89-13.25,35a11,11,0,0,1-7.57.3c-7.59-2.57-10.65-13.72-6.86-24.86,8.26-24.25,39.42-36.31,39.42-36.31S1312,439.62,1316.23,449.4Z"/><path class="cls-11" d="M1121.06,497.23c1.58-5.65,4.12-15.51,10.91-20.23,5.54-3.84,11.14-2.59,13.34,1.6a7.53,7.53,0,0,1,.63,4.71A37.45,37.45,0,0,1,1130.21,499s11.11-2.44,18-11.58a5.86,5.86,0,0,1,3.21,2.81c2.21,4.18-.52,10.69-6,14.54-12,8.36-29.15,2-29.15,2A23.45,23.45,0,0,0,1121.06,497.23Z"/><path class="cls-10" d="M1036.65,528.8c1.58-5.66,4.12-15.51,10.91-20.23,5.54-3.84,11.14-2.59,13.34,1.6a7.5,7.5,0,0,1,.63,4.7,37.33,37.33,0,0,1-15.73,15.66s11.11-2.43,18-11.57a5.81,5.81,0,0,1,3.21,2.8c2.2,4.19-.52,10.7-6,14.54-12.05,8.37-29.16,2-29.16,2A23.48,23.48,0,0,0,1036.65,528.8Z"/><path class="cls-10" d="M1370.87,589.63c-4.45,3.84-12,10.63-20.3,10.79-6.75.12-10.71-4-10.21-8.73a7.43,7.43,0,0,1,2.08-4.26,37.23,37.23,0,0,1,21.78-4.31s-10.6-4.14-21.36-.33a5.83,5.83,0,0,1-1.12-4.11c.49-4.71,6.36-8.62,13.1-8.74,14.67-.28,25.37,14.5,25.37,14.5A23.47,23.47,0,0,0,1370.87,589.63Z"/><path class="cls-11" d="M1354.48,807.77c1.57-5.66,4.12-15.51,10.91-20.23,5.54-3.85,11.14-2.59,13.33,1.6a7.43,7.43,0,0,1,.64,4.7,37.39,37.39,0,0,1-15.73,15.66s11.11-2.43,17.95-11.57a5.81,5.81,0,0,1,3.21,2.8c2.2,4.19-.52,10.7-6,14.54-12,8.37-29.16,2-29.16,2A23.48,23.48,0,0,0,1354.48,807.77Z"/><path class="cls-10" d="M1372.78,896.51c-9.16-.81-25.07-1.9-34.28-11-7.51-7.44-7.19-16.42-1.36-21a11.67,11.67,0,0,1,7.06-2.32,58.56,58.56,0,0,1,28.63,19.73s-6.94-16.41-23-24.33a9.14,9.14,0,0,1,3.39-5.75c5.81-4.59,16.62-2.27,24.13,5.16,16.34,16.16,11.43,44.32,11.43,44.32S1383,897.42,1372.78,896.51Z"/><path class="cls-10" d="M693.11,554.1c-8.68.6-23.69,2-34-6.17-8.44-6.64-9.9-16.16-5.38-21.89a10.06,10.06,0,0,1,6.11-3.56c2.06.26,16.83,2.61,30.49,16.25,0,0-9.65-16.18-26.12-22a9.93,9.93,0,0,1,2-6.61c4.5-5.75,15-5,23.45,1.61C708,526.21,709,556.66,709,556.66S702.77,553.45,693.11,554.1Z"/><path class="cls-11" d="M957.81,592.45c-6.89,1.88-18.75,5.43-28.55.32-8-4.16-10.88-11.84-8.28-17.32a8,8,0,0,1,4.29-3.93c1.72-.12,14-.53,27.5,8.61,0,0-10.68-11.89-25-14.07a8.64,8.64,0,0,1,.45-5.81c2.6-5.5,11.2-6.58,19.2-2.42C964.81,566.9,971,592,971,592A26,26,0,0,0,957.81,592.45Z"/><path class="cls-10" d="M856.51,619.41c-7.07,1.27-19.28,3.74-28.51-2-7.52-4.7-9.57-12.39-6.37-17.5a8.26,8.26,0,0,1,4.7-3.46c1.72,0,14,.63,26.49,10.61,0,0-9.37-12.42-23.42-15.7a8.27,8.27,0,0,1,1.08-5.62c3.19-5.12,11.88-5.47,19.4-.77,16.37,10.23,19.87,35.14,19.87,35.14A26.84,26.84,0,0,0,856.51,619.41Z"/><path class="cls-11" d="M1084.24,596.34c-7.37,4.63-19.94,12.95-32.91,10.68-10.58-1.86-16.37-9.55-15.11-16.74a10.06,10.06,0,0,1,3.71-6c1.94-.75,16.06-5.68,34.54-.13,0,0-16.15-9.68-33.41-7a10,10,0,0,1-1.34-6.79c1.25-7.2,10.84-11.54,21.42-9.68,23,4,38.26,30.41,38.26,30.41S1092.44,591.2,1084.24,596.34Z"/><path class="cls-11" d="M534.41,669.79c-3.84,6.07-10.21,16.72-20.63,19.67-8.52,2.37-15.56-1.26-17.19-7.05a8.46,8.46,0,0,1,.58-5.8c1.2-1.23,9.9-9.94,25.62-12.41,0,0-15.44-1.42-27.29,6.72a8.23,8.23,0,0,1-3.41-4.56c-1.64-5.8,3.94-12.41,12.47-14.83,18.5-5.19,39.21,8.93,39.21,8.93A26.62,26.62,0,0,0,534.41,669.79Z"/><path class="cls-10" d="M602.64,690.17c-.9,7.13-2.17,19.47-10.36,26.56-6.72,5.76-14.64,5.44-18.56.88a8.45,8.45,0,0,1-1.93-5.5c.56-1.62,4.76-13.2,18-22.08,0,0-14.6,5.24-21.89,17.64a8.21,8.21,0,0,1-5-2.69c-3.94-4.56-1.68-12.92,5-18.71,14.56-12.54,39.31-8.51,39.31-8.51A26.59,26.59,0,0,0,602.64,690.17Z"/><path class="cls-10" d="M1120.18,681.28c-.91,7.12-2.17,19.47-10.36,26.55-6.72,5.76-14.64,5.44-18.56.89a8.42,8.42,0,0,1-1.93-5.5c.56-1.62,4.76-13.2,18-22.09,0,0-14.6,5.25-21.89,17.64a8.19,8.19,0,0,1-5-2.68c-3.94-4.57-1.68-12.92,5-18.72,14.57-12.53,39.32-8.51,39.32-8.51A26.6,26.6,0,0,0,1120.18,681.28Z"/><path class="cls-10" d="M441,747.85c3.4-4.18,9.12-11.57,17.14-12.83,6.57-1,11.5,2.33,12.19,6.8a6.12,6.12,0,0,1-.95,4.26c-1,.82-8.26,6.53-20.19,7,0,0,11.39,2.42,20.94-2.6a6.19,6.19,0,0,1,2.14,3.7c.72,4.47-4,8.91-10.61,10C447.38,766.37,433.19,754,433.19,754A20.12,20.12,0,0,0,441,747.85Z"/><path class="cls-13" d="M716.76,747.33c3.4-4.19,9.12-11.58,17.14-12.83,6.58-1,11.5,2.33,12.2,6.79a6.23,6.23,0,0,1-1,4.26c-1,.83-8.27,6.53-20.2,7,0,0,11.39,2.43,20.95-2.59a6.22,6.22,0,0,1,2.13,3.7c.72,4.46-4,8.9-10.61,10C723.14,765.84,709,753.46,709,753.46A20,20,0,0,0,716.76,747.33Z"/><path class="cls-10" d="M1140.37,634.27c3.4-4.18,9.12-11.57,17.14-12.83,6.57-1,11.5,2.33,12.2,6.8a6.18,6.18,0,0,1-1,4.26c-1,.83-8.26,6.53-20.19,7,0,0,11.39,2.42,21-2.59a6.17,6.17,0,0,1,2.13,3.69c.72,4.47-4,8.91-10.61,10-14.28,2.24-28.47-10.14-28.47-10.14A20.12,20.12,0,0,0,1140.37,634.27Z"/><path class="cls-11" d="M313.9,841.59c.39-5.37.85-14.71,6.71-20.33,4.8-4.61,10.76-4.68,13.89-1.41a6.23,6.23,0,0,1,1.66,4c-.34,1.24-3,10.08-12.56,17.29,0,0,10.73-4.53,15.69-14.12a6.19,6.19,0,0,1,3.87,1.81c3.15,3.24,1.79,9.61-3,14.24-10.42,10-29.14,8-29.14,8A20.09,20.09,0,0,0,313.9,841.59Z"/><path class="cls-11" d="M603.17,782.72c-5.33.78-14.54,2.34-21.3-2.17-5.53-3.69-6.89-9.5-4.37-13.25a6.17,6.17,0,0,1,3.58-2.5c1.29.07,10.5.79,19.59,8.53,0,0-6.73-9.49-17.17-12.27a6.21,6.21,0,0,1,.94-4.16c2.49-3.78,9-3.83,14.55-.15,12,8,14.08,26.73,14.08,26.73A20.07,20.07,0,0,0,603.17,782.72Z"/><path class="cls-11" d="M717.43,605.92c.12,5.39.53,14.72-4.78,20.87-4.34,5-10.28,5.66-13.69,2.7a6.14,6.14,0,0,1-2-3.87c.22-1.27,2.08-10.32,10.88-18.38,0,0-10.25,5.51-14.3,15.52a6.2,6.2,0,0,1-4-1.44c-3.44-2.94-2.68-9.41,1.66-14.46,9.44-10.94,28.27-10.67,28.27-10.67A20.13,20.13,0,0,0,717.43,605.92Z"/><path class="cls-10" d="M748.68,637.52c4.13-3.47,11.13-9.65,19.25-9.37,6.65.23,10.86,4.46,10.7,9a6.22,6.22,0,0,1-1.74,4c-1.13.62-9.34,4.86-21.15,3.06,0,0,10.73,4.53,21.06,1.4a6.17,6.17,0,0,1,1.4,4c-.13,4.53-5.64,8-12.3,7.78-14.44-.49-26-15.32-26-15.32A20.06,20.06,0,0,0,748.68,637.52Z"/><path class="cls-11" d="M854.18,672.69c5.19-1.47,14.12-4.22,21.4-.63,6,2.94,8.07,8.52,6.07,12.57a6.19,6.19,0,0,1-3.24,2.94c-1.28.1-10.51.59-20.53-5.91,0,0,7.91,8.54,18.62,9.94a6.24,6.24,0,0,1-.38,4.25c-2,4.07-8.43,5-14.41,2-13-6.39-17.44-24.68-17.44-24.68A20,20,0,0,0,854.18,672.69Z"/><path class="cls-10" d="M633.13,587.61c-.76,3.6-1.94,9.87-6.42,13.13-3.67,2.67-7.71,2.16-9.52-.34a4.16,4.16,0,0,1-.75-2.88A23.76,23.76,0,0,1,626.53,587s-7.67,2.07-11.91,8.09a4.17,4.17,0,0,1-2.45-1.58c-1.83-2.49-.32-6.67,3.35-9.35,8-5.8,20.44-2.7,20.44-2.7A13.79,13.79,0,0,0,633.13,587.61Z"/><path class="cls-10" d="M943.67,383.71c4,5.18,11.23,14,10.51,23.87-.58,8.08-5.93,13-11.41,12.6a7.53,7.53,0,0,1-4.8-2.3c-.71-1.4-5.48-11.6-2.74-25.88,0,0-6,12.84-2.68,25.57a7.51,7.51,0,0,1-5,1.51c-5.5-.37-9.46-7.24-8.9-15.32,1.27-17.56,19.86-31,19.86-31A24.41,24.41,0,0,0,943.67,383.71Z"/><path class="cls-11" d="M909.64,394.75c-.76,3.6-1.94,9.87-6.42,13.13-3.68,2.67-7.72,2.16-9.53-.34a4.22,4.22,0,0,1-.74-2.88A23.63,23.63,0,0,1,903,394.13s-7.67,2.07-11.92,8.09a4.15,4.15,0,0,1-2.44-1.58c-1.83-2.49-.32-6.67,3.34-9.35,8-5.8,20.45-2.7,20.45-2.7A13.66,13.66,0,0,0,909.64,394.75Z"/><path class="cls-11" d="M885.06,486.16c-.76,3.6-1.93,9.87-6.42,13.12-3.67,2.68-7.71,2.17-9.52-.33a4.23,4.23,0,0,1-.75-2.88,23.75,23.75,0,0,1,10.1-10.53s-7.68,2.07-11.92,8.09a4.2,4.2,0,0,1-2.45-1.58c-1.83-2.49-.32-6.67,3.35-9.35,8-5.81,20.45-2.7,20.45-2.7A13.73,13.73,0,0,0,885.06,486.16Z"/><path class="cls-10" d="M930.17,476.77c-3.08,2-8.48,5.4-9.88,10.77-1.14,4.39.8,8,3.79,8.74a4.22,4.22,0,0,0,3-.36,23.71,23.71,0,0,0,6.11-13.24s.88,7.9-3.18,14.05a4.2,4.2,0,0,0,2.37,1.7c3,.8,6.32-2.13,7.48-6.53,2.49-9.54-5-20-5-20A13.66,13.66,0,0,1,930.17,476.77Z"/><path class="cls-11" d="M536.38,577.73c5-2,13.63-5.59,21.23-2.73,6.23,2.33,8.87,7.69,7.28,11.91a6.26,6.26,0,0,1-2.93,3.25c-1.27.22-10.4,1.61-21-3.86,0,0,8.72,7.72,19.51,8.05a6.15,6.15,0,0,1,0,4.27c-1.57,4.25-7.89,5.77-14.13,3.45-13.54-5.08-19.8-22.83-19.8-22.83A20,20,0,0,0,536.38,577.73Z"/><path class="cls-11" d="M464.07,490.23c2.86-4.57,7.63-12.6,15.45-14.83,6.39-1.82,11.69.91,12.93,5.26A6.18,6.18,0,0,1,492,485c-.88.93-7.4,7.48-19.19,9.39,0,0,11.6,1,20.47-5.12a6.1,6.1,0,0,1,2.57,3.41c1.27,4.34-2.92,9.33-9.31,11.17-13.9,4-29.49-6.59-29.49-6.59A20.09,20.09,0,0,0,464.07,490.23Z"/><path class="cls-11" d="M512.76,871.19c-6.23-.87-17.06-2.19-23.16-9.49-4.94-6-4.54-12.93-.49-16.31a7.28,7.28,0,0,1,4.88-1.61c1.41.51,11.5,4.39,19.1,16.13,0,0-4.38-12.92-15.14-19.52a7.46,7.46,0,0,1,2.41-4.37c4.07-3.38,11.39-1.28,16.36,4.69,10.81,13,6.88,34.69,6.88,34.69A23.55,23.55,0,0,0,512.76,871.19Z"/><path class="cls-11" d="M990.45,850.69c-6.23-.87-17.06-2.19-23.16-9.49-4.94-6-4.54-12.93-.49-16.31a7.22,7.22,0,0,1,4.88-1.6c1.41.5,11.5,4.39,19.1,16.12,0,0-4.38-12.92-15.14-19.52a7.46,7.46,0,0,1,2.41-4.37c4.07-3.37,11.39-1.28,16.36,4.69,10.81,13,6.88,34.7,6.88,34.7A23.49,23.49,0,0,0,990.45,850.69Z"/><path class="cls-10" d="M444.9,940c-3.67-5.11-10.18-13.87-9.09-23.32.92-7.71,6.23-12.2,11.47-11.6a7.31,7.31,0,0,1,4.53,2.43c.61,1.37,4.74,11.35,1.49,25,0,0,6.34-12.08,3.7-24.43a7.46,7.46,0,0,1,4.82-1.26c5.25.62,8.78,7.37,7.89,15.08-2,16.79-20.39,28.91-20.39,28.91A23.41,23.41,0,0,0,444.9,940Z"/><path class="cls-10" d="M992,914c-3.67-5.12-10.18-13.87-9.09-23.32.93-7.72,6.23-12.21,11.47-11.61a7.31,7.31,0,0,1,4.53,2.43c.61,1.37,4.75,11.36,1.49,25,0,0,6.34-12.08,3.7-24.43a7.44,7.44,0,0,1,4.83-1.27c5.25.62,8.78,7.37,7.88,15.09-2,16.79-20.39,28.9-20.39,28.9A23.4,23.4,0,0,0,992,914Z"/><path class="cls-11" d="M1456.21,719.23c-9.08,10.68-24.39,29.56-45.42,32.37-17.18,2.28-29.8-6.75-31.36-18.43a16.18,16.18,0,0,1,2.78-11c2.63-2.1,21.93-16.52,53.07-16.93,0,0-29.57-7.06-54.79,5.42a16.17,16.17,0,0,1-5.35-9.75c-1.55-11.69,11.09-23,28.26-25.29,37.34-5,73.57,28.19,73.57,28.19S1466.32,707.3,1456.21,719.23Z"/><path class="cls-11" d="M323.25,676.66c8.44,3,23.2,7.83,29.64,19.73,5.27,9.71,2.77,19.34-3.85,22.91a10.39,10.39,0,0,1-7.23.85c-1.86-1.1-14.83-9.33-22.16-27.8,0,0,2.5,19.24,15.7,31.44a10.51,10.51,0,0,1-4.62,5.43c-6.61,3.57-16.25-1.41-21.52-11.13-11.44-21.14.09-50.28.09-50.28S313.84,673.33,323.25,676.66Z"/><path class="cls-10" d="M1245.24,918.27c-3.88-8.06-11-21.89-7.16-34.87,3.1-10.61,11.65-15.69,18.87-13.56a10.39,10.39,0,0,1,5.74,4.48c.54,2.09,4,17.07-3.84,35.35,0,0,11.77-15.42,11-33.39a10.55,10.55,0,0,1,7.1-.6c7.21,2.12,10.55,12.44,7.45,23.06-6.76,23.07-35.46,35.64-35.46,35.64S1249.58,927.27,1245.24,918.27Z"/><path class="cls-10" d="M306.35,773.52c3.77-2.93,10.16-8.16,17.34-7.62,5.87.41,9.45,4.28,9.16,8.28a5.48,5.48,0,0,1-1.69,3.49,30.65,30.65,0,0,1-18.81,2s9.34,4.39,18.59,2a5.57,5.57,0,0,1,1.11,3.62c-.29,4-5.29,6.89-11.15,6.45-12.76-.92-22.52-14.45-22.52-14.45A17.75,17.75,0,0,0,306.35,773.52Z"/><path class="cls-11" d="M833.88,351.08c7.82,6.36,21.61,17,24,32.07,1.9,12.29-4.37,21.5-12.73,22.79a11.72,11.72,0,0,1-8-1.82c-1.55-1.85-12.2-15.46-13-37.8,0,0-4.59,21.31,4.76,39.23a11.72,11.72,0,0,1-6.93,4c-8.33,1.3-16.66-7.59-18.57-19.88-4.16-26.7,19.06-53.22,19.06-53.22S825.19,344,833.88,351.08Z"/><path class="cls-11" d="M605,412.43c9.7,2.73,26.59,7.07,34.7,19.94,6.62,10.53,4.51,21.47-2.65,26a11.68,11.68,0,0,1-8,1.5c-2.16-1.08-17.33-9.36-26.91-29.55,0,0,4.23,21.38,19.92,34.12a11.78,11.78,0,0,1-4.78,6.41c-7.14,4.5-18.31-.36-24.94-10.89-14.4-22.86-3.6-56.41-3.6-56.41S594.16,409.39,605,412.43Z"/><text class="cls-14" transform="translate(651.18 1299.07)">Sembrando Amor</text></svg>